<svg width="24" height="24" viewBox="0 0 28 28" fill="none" xmlns="http://www.w3.org/2000/svg">
<mask id="mask0_131_1412" style="mask-type:alpha" maskUnits="userSpaceOnUse" x="0" y="0" width="28" height="28">
<rect width="28" height="28" fill="#D9D9D9"/>
</mask>
<g mask="url(#mask0_131_1412)">
<path d="M3.50155 23.3332C2.85988 23.3332 2.31057 23.1047 1.85363 22.6478C1.39669 22.1908 1.16821 21.6415 1.16821 20.9998V8.1665H3.50155V20.9998H23.3349V23.3332H3.50155ZM8.16821 18.6665C7.52655 18.6665 6.97724 18.438 6.5203 17.9811C6.06335 17.5241 5.83488 16.9748 5.83488 16.3332V6.99984C5.83488 6.35817 6.06335 5.80886 6.5203 5.35192C6.97724 4.89498 7.52655 4.6665 8.16821 4.6665H24.5015C25.1432 4.6665 25.6925 4.89498 26.1495 5.35192C26.6064 5.80886 26.8349 6.35817 26.8349 6.99984V16.3332C26.8349 16.9748 26.6064 17.5241 26.1495 17.9811C25.6925 18.438 25.1432 18.6665 24.5015 18.6665H8.16821ZM10.5015 16.3332C10.5015 15.6915 10.2731 15.1422 9.81613 14.6853C9.35918 14.2283 8.80988 13.9998 8.16821 13.9998V16.3332H10.5015ZM22.1682 16.3332H24.5015V13.9998C23.8599 13.9998 23.3106 14.2283 22.8536 14.6853C22.3967 15.1422 22.1682 15.6915 22.1682 16.3332ZM16.3349 15.1665C17.3071 15.1665 18.1335 14.8262 18.814 14.1457C19.4946 13.4651 19.8349 12.6387 19.8349 11.6665C19.8349 10.6943 19.4946 9.86789 18.814 9.18734C18.1335 8.50678 17.3071 8.1665 16.3349 8.1665C15.3627 8.1665 14.5363 8.50678 13.8557 9.18734C13.1752 9.86789 12.8349 10.6943 12.8349 11.6665C12.8349 12.6387 13.1752 13.4651 13.8557 14.1457C14.5363 14.8262 15.3627 15.1665 16.3349 15.1665ZM8.16821 9.33317C8.80988 9.33317 9.35918 9.1047 9.81613 8.64775C10.2731 8.19081 10.5015 7.6415 10.5015 6.99984H8.16821V9.33317ZM24.5015 9.33317V6.99984H22.1682C22.1682 7.6415 22.3967 8.19081 22.8536 8.64775C23.3106 9.1047 23.8599 9.33317 24.5015 9.33317Z" fill="url(#paint0_linear_131_1412)"/>
</g>
<defs>
<linearGradient id="paint0_linear_131_1412" x1="1.16821" y1="4.6665" x2="18.9268" y2="29.0845" gradientUnits="userSpaceOnUse">
<stop stop-color="#F761A1"/>
<stop offset="1" stop-color="#8C1BAB"/>
</linearGradient>
</defs>
</svg>
