<svg width="25" height="24" viewBox="0 0 29 28" fill="none" xmlns="http://www.w3.org/2000/svg">
<mask id="mask0_131_1375" style="mask-type:alpha" maskUnits="userSpaceOnUse" x="0" y="0" width="29" height="28">
<path d="M28.5 0H0.5V28H28.5V0Z" fill="#D9D9D9"/>
</mask>
<g mask="url(#mask0_131_1375)">
<path d="M11 24.5V22.1667H7.5V19.8333H9.83333V8.16667H7.5V5.83333H11V3.5H13.3333V5.83333H15.6667V3.5H18V5.97917C19.0111 6.25139 19.8472 6.80069 20.5083 7.62708C21.1694 8.45347 21.5 9.41111 21.5 10.5C21.5 11.0639 21.4028 11.6035 21.2083 12.1188C21.0139 12.634 20.7417 13.0958 20.3917 13.5042C21.0722 13.9125 21.6215 14.4667 22.0396 15.1667C22.4576 15.8667 22.6667 16.6444 22.6667 17.5C22.6667 18.7833 22.2097 19.8819 21.2958 20.7958C20.3819 21.7097 19.2833 22.1667 18 22.1667V24.5H15.6667V22.1667H13.3333V24.5H11ZM12.1667 12.8333H16.8333C17.475 12.8333 18.0243 12.6049 18.4813 12.1479C18.9382 11.691 19.1667 11.1417 19.1667 10.5C19.1667 9.8583 18.9382 9.30903 18.4813 8.85208C18.0243 8.39514 17.475 8.16667 16.8333 8.16667H12.1667V12.8333ZM12.1667 19.8333H18C18.6417 19.8333 19.191 19.6049 19.6479 19.1479C20.1049 18.691 20.3333 18.1417 20.3333 17.5C20.3333 16.8583 20.1049 16.309 19.6479 15.8521C19.191 15.3951 18.6417 15.1667 18 15.1667H12.1667V19.8333Z" fill="url(#paint0_linear_131_1375)"/>
</g>
<defs>
<linearGradient id="paint0_linear_131_1375" x1="7.5" y1="3.5" x2="27.4351" y2="17.8976" gradientUnits="userSpaceOnUse">
<stop stop-color="#FD6E6A"/>
<stop offset="1" stop-color="#FFC600"/>
</linearGradient>
</defs>
</svg>
