<svg width="24" height="24" viewBox="0 0 28 28" fill="none" xmlns="http://www.w3.org/2000/svg">
<mask id="mask0_131_1265" style="mask-type:alpha" maskUnits="userSpaceOnUse" x="0" y="0" width="28" height="28">
<rect width="28" height="28" rx="1" fill="#D9D9D9"/>
</mask>
<g mask="url(#mask0_131_1265)">
<path d="M4.5 24.5C3.94771 24.5 3.5 24.0523 3.5 23.5V9.16667C3.5 8.61438 3.94772 8.16667 4.5 8.16667H7.16667C7.71895 8.16667 8.16667 7.71895 8.16667 7.16667V4.5C8.16667 3.94771 8.61438 3.5 9.16667 3.5H18.8333C19.3856 3.5 19.8333 3.94772 19.8333 4.5V11.8333C19.8333 12.3856 20.281 12.8333 20.8333 12.8333H23.5C24.0523 12.8333 24.5 13.281 24.5 13.8333V23.5C24.5 24.0523 24.0523 24.5 23.5 24.5H16.1667C15.6144 24.5 15.1667 24.0523 15.1667 23.5V20.8333C15.1667 20.281 14.719 19.8333 14.1667 19.8333H13.8333C13.281 19.8333 12.8333 20.281 12.8333 20.8333V23.5C12.8333 24.0523 12.3856 24.5 11.8333 24.5H4.5ZM5.83333 21.1667C5.83333 21.719 6.28105 22.1667 6.83333 22.1667H7.16667C7.71895 22.1667 8.16667 21.719 8.16667 21.1667V20.8333C8.16667 20.281 7.71895 19.8333 7.16667 19.8333H6.83333C6.28105 19.8333 5.83333 20.281 5.83333 20.8333V21.1667ZM5.83333 16.5C5.83333 17.0523 6.28105 17.5 6.83333 17.5H7.16667C7.71895 17.5 8.16667 17.0523 8.16667 16.5V16.1667C8.16667 15.6144 7.71895 15.1667 7.16667 15.1667H6.83333C6.28105 15.1667 5.83333 15.6144 5.83333 16.1667V16.5ZM5.83333 11.8333C5.83333 12.3856 6.28105 12.8333 6.83333 12.8333H7.16667C7.71895 12.8333 8.16667 12.3856 8.16667 11.8333V11.5C8.16667 10.9477 7.71895 10.5 7.16667 10.5H6.83333C6.28105 10.5 5.83333 10.9477 5.83333 11.5V11.8333ZM10.5 16.5C10.5 17.0523 10.9477 17.5 11.5 17.5H11.8333C12.3856 17.5 12.8333 17.0523 12.8333 16.5V16.1667C12.8333 15.6144 12.3856 15.1667 11.8333 15.1667H11.5C10.9477 15.1667 10.5 15.6144 10.5 16.1667V16.5ZM10.5 11.8333C10.5 12.3856 10.9477 12.8333 11.5 12.8333H11.8333C12.3856 12.8333 12.8333 12.3856 12.8333 11.8333V11.5C12.8333 10.9477 12.3856 10.5 11.8333 10.5H11.5C10.9477 10.5 10.5 10.9477 10.5 11.5V11.8333ZM10.5 7.16667C10.5 7.71895 10.9477 8.16667 11.5 8.16667H11.8333C12.3856 8.16667 12.8333 7.71895 12.8333 7.16667V6.83333C12.8333 6.28105 12.3856 5.83333 11.8333 5.83333H11.5C10.9477 5.83333 10.5 6.28105 10.5 6.83333V7.16667ZM15.1667 16.5C15.1667 17.0523 15.6144 17.5 16.1667 17.5H16.5C17.0523 17.5 17.5 17.0523 17.5 16.5V16.1667C17.5 15.6144 17.0523 15.1667 16.5 15.1667H16.1667C15.6144 15.1667 15.1667 15.6144 15.1667 16.1667V16.5ZM15.1667 11.8333C15.1667 12.3856 15.6144 12.8333 16.1667 12.8333H16.5C17.0523 12.8333 17.5 12.3856 17.5 11.8333V11.5C17.5 10.9477 17.0523 10.5 16.5 10.5H16.1667C15.6144 10.5 15.1667 10.9477 15.1667 11.5V11.8333ZM15.1667 7.16667C15.1667 7.71895 15.6144 8.16667 16.1667 8.16667H16.5C17.0523 8.16667 17.5 7.71895 17.5 7.16667V6.83333C17.5 6.28105 17.0523 5.83333 16.5 5.83333H16.1667C15.6144 5.83333 15.1667 6.28105 15.1667 6.83333V7.16667ZM19.8333 21.1667C19.8333 21.719 20.281 22.1667 20.8333 22.1667H21.1667C21.719 22.1667 22.1667 21.719 22.1667 21.1667V20.8333C22.1667 20.281 21.719 19.8333 21.1667 19.8333H20.8333C20.281 19.8333 19.8333 20.281 19.8333 20.8333V21.1667ZM19.8333 16.5C19.8333 17.0523 20.281 17.5 20.8333 17.5H21.1667C21.719 17.5 22.1667 17.0523 22.1667 16.5V16.1667C22.1667 15.6144 21.719 15.1667 21.1667 15.1667H20.8333C20.281 15.1667 19.8333 15.6144 19.8333 16.1667V16.5Z" fill="url(#paint0_linear_131_1265)"/>
</g>
<defs>
<linearGradient id="paint0_linear_131_1265" x1="3.5" y1="3.5" x2="24.5" y2="24.5" gradientUnits="userSpaceOnUse">
<stop stop-color="#FDD819"/>
<stop offset="1" stop-color="#E80505"/>
</linearGradient>
</defs>
</svg>
