<svg width="25" height="24" viewBox="0 0 29 28" fill="none" xmlns="http://www.w3.org/2000/svg">
<mask id="mask0_131_1399" style="mask-type:alpha" maskUnits="userSpaceOnUse" x="0" y="0" width="29" height="28">
<path d="M28.5 0H0.5V28H28.5V0Z" fill="#D9D9D9"/>
</mask>
<g mask="url(#mask0_131_1399)">
<path d="M6.33333 24.5C5.69167 24.5 5.14236 24.2715 4.68542 23.8146C4.22847 23.3576 4 22.8083 4 22.1667V5.83333C4 5.19167 4.22847 4.64236 4.68542 4.18542C5.14236 3.72847 5.69167 3.5 6.33333 3.5H22.6667C23.3083 3.5 23.8576 3.72847 24.3146 4.18542C24.7715 4.64236 25 5.19167 25 5.83333V22.1667C25 22.8083 24.7715 23.3576 24.3146 23.8146C23.8576 24.2715 23.3083 24.5 22.6667 24.5H6.33333ZM22.6667 11.0867C22.6667 10.1674 21.5306 9.7352 20.9196 10.422L16.313 15.5997C15.9306 16.0294 15.2655 16.0488 14.8588 15.6421L11.7071 12.4904C11.3166 12.0999 10.6834 12.0999 10.2929 12.4904L6.62623 16.1571C6.43869 16.3446 6.33333 16.599 6.33333 16.8642V17.3608C6.33333 18.2517 7.41048 18.6979 8.04044 18.0679L10.2929 15.8154C10.6834 15.4249 11.3166 15.4249 11.7071 15.8154L14.9719 19.0803C15.38 19.4883 16.0477 19.4673 16.4292 19.0344L22.4168 12.2418C22.5778 12.0591 22.6667 11.824 22.6667 11.5805V11.0867Z" fill="url(#paint0_linear_131_1399)"/>
</g>
<defs>
<linearGradient id="paint0_linear_131_1399" x1="4" y1="3.5" x2="25" y2="24.5" gradientUnits="userSpaceOnUse">
<stop stop-color="#70F570"/>
<stop offset="1" stop-color="#49C628"/>
</linearGradient>
</defs>
</svg>
