<svg width="24" height="24" viewBox="0 0 28 28" fill="none" xmlns="http://www.w3.org/2000/svg">
<mask id="mask0_131_1365" style="mask-type:alpha" maskUnits="userSpaceOnUse" x="0" y="0" width="28" height="28">
<rect width="28" height="28" fill="#D9D9D9"/>
</mask>
<g mask="url(#mask0_131_1365)">
<path d="M13.9989 25.6668C12.3851 25.6668 10.8684 25.3606 9.44894 24.7481C8.0295 24.1356 6.79478 23.3043 5.74478 22.2543C4.69478 21.2043 3.86353 19.9696 3.25103 18.5502C2.63853 17.1307 2.33228 15.6141 2.33228 14.0002C2.33228 12.3863 2.63853 10.8696 3.25103 9.45016C3.86353 8.03072 4.69478 6.796 5.74478 5.746C6.79478 4.696 8.0295 3.86475 9.44894 3.25225C10.8684 2.63975 12.3851 2.3335 13.9989 2.3335C15.6128 2.3335 17.1295 2.63975 18.5489 3.25225C19.9684 3.86475 21.2031 4.696 22.2531 5.746C23.3031 6.796 24.1344 8.03072 24.7469 9.45016C25.3594 10.8696 25.6656 12.3863 25.6656 14.0002C25.6656 15.6141 25.3594 17.1307 24.7469 18.5502C24.1344 19.9696 23.3031 21.2043 22.2531 22.2543C21.2031 23.3043 19.9684 24.1356 18.5489 24.7481C17.1295 25.3606 15.6128 25.6668 13.9989 25.6668ZM13.9989 23.3335C16.6045 23.3335 18.8114 22.4293 20.6198 20.621C22.4281 18.8127 23.3323 16.6057 23.3323 14.0002C23.3323 13.8641 23.3274 13.7231 23.3177 13.5772C23.308 13.4314 23.3031 13.3099 23.3031 13.2127C23.2059 13.7766 22.9434 14.2432 22.5156 14.6127C22.0878 14.9821 21.5823 15.1668 20.9989 15.1668H18.6656C18.0239 15.1668 17.4746 14.9384 17.0177 14.4814C16.5607 14.0245 16.3323 13.4752 16.3323 12.8335V11.6668H11.6656V9.3335C11.6656 8.69183 11.8941 8.14252 12.351 7.68558C12.808 7.22864 13.3573 7.00016 13.9989 7.00016H15.1656C15.1656 6.55294 15.2871 6.15919 15.5302 5.81891C15.7732 5.47864 16.0698 5.20155 16.4198 4.98766C16.0309 4.89044 15.6371 4.81266 15.2385 4.75433C14.8399 4.696 14.4267 4.66683 13.9989 4.66683C11.3934 4.66683 9.18644 5.571 7.37811 7.37933C5.56978 9.18766 4.66561 11.3946 4.66561 14.0002H10.4989C11.7823 14.0002 12.8809 14.4571 13.7948 15.371C14.7087 16.2849 15.1656 17.3835 15.1656 18.6668V19.8335H11.6656V23.0418C12.0545 23.1391 12.4385 23.212 12.8177 23.2606C13.1969 23.3092 13.5906 23.3335 13.9989 23.3335Z" fill="url(#paint0_linear_131_1365)"/>
</g>
<defs>
<linearGradient id="paint0_linear_131_1365" x1="2.33228" y1="2.3335" x2="25.6656" y2="25.6668" gradientUnits="userSpaceOnUse">
<stop stop-color="#FFCF71"/>
<stop offset="1" stop-color="#2376DD"/>
</linearGradient>
</defs>
</svg>
