<svg width="24" height="24" viewBox="0 0 28 28" fill="none" xmlns="http://www.w3.org/2000/svg">
<path d="M23.3334 19.8335V13.3609C23.3334 12.7375 23.3329 12.4257 23.2571 12.1356C23.1899 11.8785 23.0796 11.6352 22.9304 11.4154C22.762 11.1673 22.5279 10.9616 22.0587 10.5511L16.4587 5.65113C15.5877 4.88896 15.1522 4.50807 14.662 4.36313C14.2301 4.2354 13.7698 4.2354 13.3379 4.36313C12.8481 4.50796 12.4132 4.88849 11.5435 5.64951L5.94165 10.5511C5.4725 10.9616 5.23846 11.1673 5.07007 11.4154C4.92084 11.6352 4.80972 11.8785 4.74255 12.1356C4.66675 12.4257 4.66675 12.7375 4.66675 13.3609V19.8335C4.66675 20.9207 4.66675 21.4641 4.84436 21.8929C5.08118 22.4646 5.53512 22.9194 6.10685 23.1563C6.53565 23.3339 7.07925 23.3339 8.16645 23.3339C9.25364 23.3339 9.79784 23.3339 10.2266 23.1563C10.7984 22.9194 11.2522 22.4647 11.489 21.893C11.6666 21.4642 11.6667 20.9206 11.6667 19.8334V18.6668C11.6667 17.3781 12.7114 16.3334 14.0001 16.3334C15.2887 16.3334 16.3334 17.3781 16.3334 18.6668V19.8334C16.3334 20.9206 16.3334 21.4642 16.511 21.893C16.7478 22.4647 17.2018 22.9194 17.7735 23.1563C18.2023 23.3339 18.7459 23.3339 19.8331 23.3339C20.9203 23.3339 21.4645 23.3339 21.8933 23.1563C22.465 22.9194 22.9189 22.4646 23.1557 21.8929C23.3333 21.4641 23.3334 20.9207 23.3334 19.8335Z" fill="url(#paint0_linear_147_80)"/>
<defs>
<linearGradient id="paint0_linear_147_80" x1="4.66675" y1="4.26733" x2="23.729" y2="22.9298" gradientUnits="userSpaceOnUse">
<stop stop-color="#FFCF71"/>
<stop offset="1" stop-color="#2376DD"/>
</linearGradient>
</defs>
</svg>
