<svg width="25" height="24" viewBox="0 0 29 28" fill="none" xmlns="http://www.w3.org/2000/svg">
<mask id="mask0_131_1393" style="mask-type:alpha" maskUnits="userSpaceOnUse" x="0" y="0" width="29" height="28">
<path d="M27.5 0H1.5C0.947715 0 0.5 0.447715 0.5 1V27C0.5 27.5523 0.947715 28 1.5 28H27.5C28.0523 28 28.5 27.5523 28.5 27V1C28.5 0.447715 28.0523 0 27.5 0Z" fill="#D9D9D9"/>
</mask>
<g mask="url(#mask0_131_1393)">
<path d="M3.83203 25.6673C3.27975 25.6673 2.83203 25.2196 2.83203 24.6673V12.2997C2.83203 11.8986 3.07172 11.5363 3.44089 11.3794L9.91257 8.62892C10.4275 8.41008 10.9987 8.78797 10.9987 9.34747C10.9987 9.8998 11.5566 10.2775 12.0694 10.0724L15.4606 8.71587C16.1175 8.45313 16.832 8.93689 16.832 9.6444V10.6673C16.832 11.2196 17.2797 11.6673 17.832 11.6673H25.1654C25.7177 11.6673 26.1654 12.115 26.1654 12.6673V24.6673C26.1654 25.2196 25.7177 25.6673 25.1654 25.6673H3.83203ZM13.332 20.0007C13.332 20.5529 13.7797 21.0007 14.332 21.0007H14.6654C15.2177 21.0007 15.6654 20.5529 15.6654 20.0007V17.334C15.6654 16.7817 15.2177 16.334 14.6654 16.334H14.332C13.7797 16.334 13.332 16.7817 13.332 17.334V20.0007ZM8.66536 20.0007C8.66536 20.5529 9.11308 21.0007 9.66536 21.0007H9.9987C10.551 21.0007 10.9987 20.5529 10.9987 20.0007V17.334C10.9987 16.7817 10.551 16.334 9.9987 16.334H9.66537C9.11308 16.334 8.66536 16.7817 8.66536 17.334V20.0007ZM17.9987 20.0007C17.9987 20.5529 18.4464 21.0007 18.9987 21.0007H19.332C19.8843 21.0007 20.332 20.5529 20.332 20.0007V17.334C20.332 16.7817 19.8843 16.334 19.332 16.334H18.9987C18.4464 16.334 17.9987 16.7817 17.9987 17.334V20.0007ZM25.7939 8.79516C25.8673 9.3914 25.4021 9.9173 24.8014 9.9173H21.6755C21.0717 9.9173 20.6056 9.38633 20.6839 8.78765L21.4141 3.20432C21.4792 2.7064 21.9034 2.33398 22.4056 2.33398H24.1142C24.6193 2.33398 25.045 2.71057 25.1067 3.21183L25.7939 8.79516Z" fill="url(#paint0_linear_131_1393)"/>
</g>
<defs>
<linearGradient id="paint0_linear_131_1393" x1="2.83203" y1="2.33398" x2="26.1654" y2="25.6673" gradientUnits="userSpaceOnUse">
<stop stop-color="#FAB2FF"/>
<stop offset="1" stop-color="#1904E5"/>
</linearGradient>
</defs>
</svg>
