<svg width="25" height="24" viewBox="0 0 29 28" fill="none" xmlns="http://www.w3.org/2000/svg">
<mask id="mask0_131_1387" style="mask-type:alpha" maskUnits="userSpaceOnUse" x="0" y="0" width="29" height="28">
<path d="M28.5 0H0.5V28H28.5V0Z" fill="#D9D9D9"/>
</mask>
<g mask="url(#mask0_131_1387)">
<path d="M25.03 12.8917V22.1667C25.03 22.8083 24.8015 23.3576 24.3446 23.8146C23.8877 24.2715 23.3384 24.5 22.6967 24.5H6.36335C5.72169 24.5 5.17238 24.2715 4.71544 23.8146C4.25849 23.3576 4.03002 22.8083 4.03002 22.1667V12.8917C3.5828 12.4833 3.23766 11.9583 2.99461 11.3167C2.75155 10.675 2.74669 9.975 2.98002 9.21667L4.20502 5.25C4.36058 4.74444 4.63766 4.32639 5.03627 3.99583C5.43488 3.66528 5.89669 3.5 6.42169 3.5H22.6384C23.1634 3.5 23.6203 3.66042 24.0092 3.98125C24.3981 4.30208 24.68 4.725 24.855 5.25L26.08 9.21667C26.3134 9.975 26.3085 10.6653 26.0654 11.2875C25.8224 11.9097 25.4772 12.4444 25.03 12.8917ZM17.0967 11.6667C17.6217 11.6667 18.0203 11.4868 18.2925 11.1271C18.5647 10.7674 18.6717 10.3639 18.6134 9.9167L17.9717 5.83333H15.6967V10.15C15.6967 10.5583 15.8328 10.9132 16.105 11.2146C16.3772 11.516 16.7078 11.6667 17.0967 11.6667ZM11.8467 11.6667C12.2939 11.6667 12.6585 11.516 12.9404 11.2146C13.2224 10.9132 13.3634 10.5583 13.3634 10.15V5.83333H11.0884L10.4467 9.9167C10.3689 10.3833 10.471 10.7917 10.7529 11.1417C11.0349 11.4917 11.3995 11.6667 11.8467 11.6667ZM6.65502 11.6667C7.00502 11.6667 7.31127 11.5403 7.57377 11.2875C7.83627 11.0347 7.99669 10.7139 8.05502 10.325L8.69669 5.83333H6.42169L5.25502 9.7417C5.13836 10.1306 5.20155 10.5486 5.44461 10.9958C5.68766 11.4431 6.09113 11.6667 6.65502 11.6667ZM22.405 11.6667C22.9689 11.6667 23.3772 11.4431 23.63 10.9958C23.8828 10.5486 23.9411 10.1306 23.805 9.7417L22.58 5.83333H20.3634L21.005 10.325C21.0634 10.7139 21.2238 11.0347 21.4863 11.2875C21.7488 11.5403 22.055 11.6667 22.405 11.6667Z" fill="url(#paint0_linear_131_1387)"/>
</g>
<defs>
<linearGradient id="paint0_linear_131_1387" x1="2.80859" y1="3.5" x2="23.6821" y2="26.8016" gradientUnits="userSpaceOnUse">
<stop stop-color="#72EDF2"/>
<stop offset="1" stop-color="#5151E5"/>
</linearGradient>
</defs>
</svg>
