<svg width="24" height="24" viewBox="0 0 28 28" fill="none" xmlns="http://www.w3.org/2000/svg">
<mask id="mask0_131_1381" style="mask-type:alpha" maskUnits="userSpaceOnUse" x="0" y="0" width="28" height="28">
<path d="M28 0H0V28H28V0Z" fill="#D9D9D9"/>
</mask>
<g mask="url(#mask0_131_1381)">
<path d="M3.5 25.6673V21.0007C3.5 20.359 3.72847 19.8097 4.18542 19.3527C4.64236 18.8958 5.19167 18.6673 5.83333 18.6673H7.35L7.99167 14.0007H4.66667V11.6673H23.3333V14.0007H20.0083L20.65 18.6673H22.1667C22.8083 18.6673 23.3576 18.8958 23.8146 19.3527C24.2715 19.8097 24.5 20.359 24.5 21.0007V25.6673H3.5ZM7.525 9.9173L5.83333 2.33398C6.475 2.8201 7.13611 3.27704 7.81667 3.70482C8.49722 4.1326 9.24583 4.34648 10.0625 4.34648C10.8403 4.34648 11.5549 4.14718 12.2062 3.74857C12.8576 3.34996 13.4556 2.87843 14 2.33398C14.5444 2.87843 15.1424 3.34996 15.7938 3.74857C16.4451 4.14718 17.1597 4.34648 17.9375 4.34648C18.7542 4.34648 19.5028 4.1326 20.1833 3.70482C20.8639 3.27704 21.525 2.8201 22.1667 2.33398L20.5042 9.9173H7.525Z" fill="url(#paint0_linear_131_1381)"/>
</g>
<defs>
<linearGradient id="paint0_linear_131_1381" x1="3.5" y1="2.33398" x2="26.7044" y2="23.218" gradientUnits="userSpaceOnUse">
<stop stop-color="#97ABFF"/>
<stop offset="1" stop-color="#123597"/>
</linearGradient>
</defs>
</svg>
