<svg width="28" height="28" viewBox="0 0 28 28" fill="none" xmlns="http://www.w3.org/2000/svg">
<path d="M3.50006 19.8335C3.5 19.7582 3.5 19.6805 3.5 19.6003V8.40031C3.5 7.09352 3.5 6.43964 3.75432 5.94051C3.97802 5.50147 4.33472 5.14477 4.77376 4.92107C5.27289 4.66675 5.92677 4.66675 7.23356 4.66675H20.7669C22.0737 4.66675 22.7267 4.66675 23.2259 4.92107C23.6649 5.14477 24.0222 5.50147 24.2459 5.94051C24.5 6.43915 24.5 7.09224 24.5 8.39648V19.6037C24.5 20.1695 24.5 20.6126 24.4793 20.9737M3.50006 19.8335C3.50096 20.9866 3.5156 21.5902 3.75432 22.0587C3.97802 22.4978 4.33472 22.8556 4.77376 23.0793C5.2724 23.3334 5.92549 23.3334 7.22973 23.3334H20.7708C22.0751 23.3334 22.7272 23.3334 23.2259 23.0793C23.6649 22.8556 24.0222 22.4978 24.2459 22.0587C24.3898 21.7764 24.4522 21.4449 24.4793 20.9737M3.50006 19.8335L9.06264 13.3438L9.06428 13.342C9.55765 12.7664 9.80474 12.4782 10.0978 12.3743C10.3553 12.283 10.6363 12.2851 10.8925 12.38C11.1844 12.488 11.4276 12.7796 11.9139 13.3632L15.0303 17.1028C15.4804 17.6431 15.7068 17.9147 15.9817 18.0238C16.2242 18.12 16.4916 18.1308 16.7418 18.057C17.0266 17.9729 17.2773 17.7223 17.7786 17.2209L18.3585 16.641C18.8689 16.1306 19.1241 15.8756 19.413 15.7922C19.6667 15.719 19.9379 15.7347 20.182 15.8355C20.4599 15.9503 20.6852 16.2312 21.1361 16.7948L24.4793 20.9737M24.4793 20.9737L24.5 20.9996M17.5 11.6667C16.8557 11.6667 16.3333 11.1444 16.3333 10.5001C16.3333 9.85575 16.8557 9.33341 17.5 9.33341C18.1443 9.33341 18.6667 9.85575 18.6667 10.5001C18.6667 11.1444 18.1443 11.6667 17.5 11.6667Z" stroke="black" stroke-width="1.5" stroke-linecap="round" stroke-linejoin="round"/>
</svg>
