<svg width="154" height="29" viewBox="0 0 154 29" fill="none" xmlns="http://www.w3.org/2000/svg">
<g clip-path="url(#clip0_342_2893)">
<mask id="mask0_342_2893" style="mask-type:luminance" maskUnits="userSpaceOnUse" x="0" y="1" width="28" height="27">
<path d="M27.7077 1H0.5V28H27.7077V1Z" fill="white"/>
</mask>
<g mask="url(#mask0_342_2893)">
<path fill-rule="evenodd" clip-rule="evenodd" d="M19.1923 19.6923H8.80762V17.6154H17.1153V11.3846H8.80762V9.3077V3.07693V1H19.1923V3.07693H10.8845V9.3077H19.1923V11.3846V17.6154V19.6923Z" fill="#0066FF"/>
<path fill-rule="evenodd" clip-rule="evenodd" d="M19.1923 27.9999H8.80762V25.923H17.1153V19.6922H8.80762V17.6153V11.3845V9.30762H19.1923V11.3845H10.8845V17.6153H19.1923V19.6922V25.923V27.9999Z" fill="black"/>
<path fill-rule="evenodd" clip-rule="evenodd" d="M8.80762 19.6922V9.30762H10.8845V17.6153H17.1153V9.30762H19.1922H25.423H27.4999V19.6922H25.423V11.3845H19.1922V19.6922H17.1153H10.8845H8.80762Z" fill="#0066FF"/>
<path fill-rule="evenodd" clip-rule="evenodd" d="M19.1917 9.30762L19.2757 19.6919L17.1988 19.7087L10.9682 19.759L8.89138 19.7758L8.82423 11.4684L2.59364 11.5188L2.66081 19.8262L0.583956 19.843L0.5 9.45873L2.57686 9.44195L8.80743 9.39157L10.8843 9.37478L10.9515 17.6822L17.182 17.6318L17.1149 9.3244L19.1917 9.30762Z" fill="#1A1A1B"/>
<path fill-rule="evenodd" clip-rule="evenodd" d="M27.5684 19.6922L17.1838 19.7303L17.1761 17.6534L17.1533 11.4226L17.1457 9.3457L25.4533 9.31526L25.4304 3.08452L17.1228 3.11497L17.1152 1.03807L27.4999 1L27.5073 3.07692L27.5302 9.30763L27.5379 11.3846L19.2302 11.415L19.2531 17.6457L27.5607 17.6153L27.5684 19.6922Z" fill="#0066FF"/>
<path fill-rule="evenodd" clip-rule="evenodd" d="M0.5 9.30762H10.8846V11.3845V17.6153V19.6922H2.57693V25.923H10.8846V27.9999H0.5V25.923V19.6922V17.6153H8.80771V11.3845H0.5V9.30762Z" fill="#1A1A1B"/>
<path d="M19.1925 9.30762H10.8848V11.3845H19.1925V9.30762Z" fill="#0066FF"/>
<path d="M17.1152 3.0769V11.3846H19.1922V3.0769H17.1152Z" fill="#0066FF"/>
<path d="M8.80762 17.6155V25.9232H10.8845V17.6155H8.80762Z" fill="#1A1A1B"/>
</g>
<path d="M42.4838 22.2199C41.2518 22.2199 40.0638 21.9779 38.9198 21.4939C37.7758 21.0099 36.7638 20.3279 35.8838 19.4479L37.2918 17.8199C38.1278 18.6412 38.9785 19.2499 39.8438 19.6459C40.7238 20.0419 41.6405 20.2399 42.5938 20.2399C43.3418 20.2399 43.9945 20.1372 44.5518 19.9319C45.1238 19.7119 45.5638 19.4039 45.8718 19.0079C46.1798 18.6119 46.3338 18.1646 46.3338 17.6659C46.3338 16.9766 46.0918 16.4486 45.6078 16.0819C45.1238 15.7152 44.3245 15.4366 43.2098 15.2459L40.6358 14.8279C39.2278 14.5786 38.1718 14.1239 37.4678 13.4639C36.7785 12.8039 36.4338 11.9239 36.4338 10.8239C36.4338 9.94388 36.6685 9.17388 37.1378 8.51388C37.6072 7.83921 38.2672 7.31855 39.1178 6.95188C39.9832 6.58521 40.9805 6.40188 42.1098 6.40188C43.2245 6.40188 44.3172 6.58521 45.3878 6.95188C46.4732 7.30388 47.4485 7.81721 48.3138 8.49188L47.0378 10.2519C45.3805 8.99055 43.7012 8.35988 41.9998 8.35988C41.3252 8.35988 40.7385 8.45521 40.2398 8.64588C39.7412 8.83655 39.3525 9.10788 39.0738 9.45988C38.7952 9.79721 38.6558 10.1932 38.6558 10.6479C38.6558 11.2786 38.8685 11.7626 39.2938 12.0999C39.7192 12.4226 40.4232 12.6572 41.4058 12.8039L43.8918 13.2219C45.5198 13.4859 46.7152 13.9626 47.4778 14.6519C48.2405 15.3412 48.6218 16.2872 48.6218 17.4899C48.6218 18.4286 48.3652 19.2572 47.8518 19.9759C47.3385 20.6799 46.6198 21.2299 45.6958 21.6259C44.7718 22.0219 43.7012 22.2199 42.4838 22.2199ZM56.0809 22.1979C54.9809 22.1979 53.9835 21.9412 53.0889 21.4279C52.2089 20.9146 51.5049 20.2179 50.9769 19.3379C50.4635 18.4579 50.2069 17.4752 50.2069 16.3899C50.2069 15.3192 50.4562 14.3512 50.9549 13.4859C51.4535 12.6059 52.1282 11.9092 52.9789 11.3959C53.8295 10.8679 54.7755 10.6039 55.8169 10.6039C56.8582 10.6039 57.7822 10.8679 58.5889 11.3959C59.3955 11.9092 60.0335 12.6132 60.5029 13.5079C60.9869 14.3879 61.2289 15.3852 61.2289 16.4999V17.1159H52.4069C52.5242 17.7319 52.7515 18.2819 53.0889 18.7659C53.4409 19.2499 53.8809 19.6312 54.4089 19.9099C54.9515 20.1886 55.5382 20.3279 56.1689 20.3279C56.7115 20.3279 57.2322 20.2472 57.7309 20.0859C58.2442 19.9099 58.6695 19.6606 59.0069 19.3379L60.4149 20.7239C59.7549 21.2226 59.0729 21.5966 58.3689 21.8459C57.6795 22.0806 56.9169 22.1979 56.0809 22.1979ZM52.4289 15.4659H59.0509C58.9629 14.8792 58.7575 14.3659 58.4349 13.9259C58.1269 13.4712 57.7382 13.1192 57.2689 12.8699C56.8142 12.6059 56.3155 12.4739 55.7729 12.4739C55.2155 12.4739 54.7022 12.5986 54.2329 12.8479C53.7635 13.0972 53.3675 13.4492 53.0449 13.9039C52.7369 14.3439 52.5315 14.8646 52.4289 15.4659ZM63.3242 21.9999V6.59988L65.5242 6.18188V21.9999H63.3242ZM68.1152 21.9999V6.59988L70.3152 6.18188V21.9999H68.1152ZM73.1702 21.9999V6.59988H80.1442C81.1709 6.59988 82.0655 6.79055 82.8282 7.17188C83.6055 7.55321 84.2069 8.08855 84.6322 8.77788C85.0722 9.45255 85.2922 10.2446 85.2922 11.1539C85.2922 12.1659 85.0062 13.0386 84.4342 13.7719C83.8622 14.5052 83.0922 15.0332 82.1242 15.3559L85.5562 21.9999H83.0042L79.8142 15.6859H75.4802V21.9999H73.1702ZM75.4802 13.7499H79.9682C80.8775 13.7499 81.6035 13.5226 82.1462 13.0679C82.7035 12.5986 82.9822 11.9679 82.9822 11.1759C82.9822 10.4132 82.7035 9.79721 82.1462 9.32788C81.6035 8.85855 80.8775 8.62388 79.9682 8.62388H75.4802V13.7499ZM92.1101 22.1979C91.0101 22.1979 90.0128 21.9412 89.1181 21.4279C88.2381 20.9146 87.5341 20.2179 87.0061 19.3379C86.4928 18.4579 86.2361 17.4752 86.2361 16.3899C86.2361 15.3192 86.4855 14.3512 86.9841 13.4859C87.4828 12.6059 88.1575 11.9092 89.0081 11.3959C89.8588 10.8679 90.8048 10.6039 91.8461 10.6039C92.8875 10.6039 93.8115 10.8679 94.6181 11.3959C95.4248 11.9092 96.0628 12.6132 96.5321 13.5079C97.0161 14.3879 97.2581 15.3852 97.2581 16.4999V17.1159H88.4361C88.5535 17.7319 88.7808 18.2819 89.1181 18.7659C89.4701 19.2499 89.9101 19.6312 90.4381 19.9099C90.9808 20.1886 91.5675 20.3279 92.1981 20.3279C92.7408 20.3279 93.2615 20.2472 93.7601 20.0859C94.2735 19.9099 94.6988 19.6606 95.0361 19.3379L96.4441 20.7239C95.7841 21.2226 95.1021 21.5966 94.3981 21.8459C93.7088 22.0806 92.9461 22.1979 92.1101 22.1979ZM88.4581 15.4659H95.0801C94.9921 14.8792 94.7868 14.3659 94.4641 13.9259C94.1561 13.4712 93.7675 13.1192 93.2981 12.8699C92.8435 12.6059 92.3448 12.4739 91.8021 12.4739C91.2448 12.4739 90.7315 12.5986 90.2621 12.8479C89.7928 13.0972 89.3968 13.4492 89.0741 13.9039C88.7661 14.3439 88.5608 14.8646 88.4581 15.4659ZM99.3535 26.4879V10.8019H101.531V11.8799C102.47 11.0439 103.614 10.6259 104.963 10.6259C106.019 10.6259 106.973 10.8826 107.823 11.3959C108.689 11.9092 109.371 12.5986 109.869 13.4639C110.368 14.3292 110.617 15.3046 110.617 16.3899C110.617 17.4752 110.361 18.4579 109.847 19.3379C109.349 20.2032 108.667 20.8926 107.801 21.4059C106.951 21.9192 105.99 22.1759 104.919 22.1759C104.303 22.1759 103.709 22.0806 103.137 21.8899C102.565 21.6846 102.037 21.3986 101.553 21.0319V26.4879H99.3535ZM104.677 20.2619C105.396 20.2619 106.034 20.0932 106.591 19.7559C107.163 19.4186 107.618 18.9639 107.955 18.3919C108.293 17.8052 108.461 17.1452 108.461 16.4119C108.461 15.6786 108.293 15.0186 107.955 14.4319C107.618 13.8452 107.163 13.3832 106.591 13.0459C106.034 12.7086 105.396 12.5399 104.677 12.5399C104.047 12.5399 103.46 12.6572 102.917 12.8919C102.375 13.1266 101.92 13.4566 101.553 13.8819V18.9419C101.92 19.3526 102.375 19.6752 102.917 19.9099C103.475 20.1446 104.061 20.2619 104.677 20.2619ZM118.04 22.2199C116.955 22.2199 115.965 21.9632 115.07 21.4499C114.19 20.9366 113.494 20.2399 112.98 19.3599C112.467 18.4799 112.21 17.4972 112.21 16.4119C112.21 15.3266 112.467 14.3439 112.98 13.4639C113.494 12.5839 114.19 11.8872 115.07 11.3739C115.965 10.8459 116.955 10.5819 118.04 10.5819C119.14 10.5819 120.13 10.8459 121.01 11.3739C121.89 11.8872 122.587 12.5839 123.1 13.4639C123.614 14.3439 123.87 15.3266 123.87 16.4119C123.87 17.4972 123.614 18.4799 123.1 19.3599C122.587 20.2399 121.89 20.9366 121.01 21.4499C120.13 21.9632 119.14 22.2199 118.04 22.2199ZM118.04 20.2839C118.73 20.2839 119.353 20.1152 119.91 19.7779C120.468 19.4259 120.908 18.9566 121.23 18.3699C121.553 17.7832 121.714 17.1232 121.714 16.3899C121.714 15.6712 121.546 15.0259 121.208 14.4539C120.886 13.8672 120.446 13.3979 119.888 13.0459C119.346 12.6939 118.73 12.5179 118.04 12.5179C117.351 12.5179 116.728 12.6939 116.17 13.0459C115.628 13.3979 115.188 13.8672 114.85 14.4539C114.528 15.0259 114.366 15.6712 114.366 16.3899C114.366 17.1232 114.528 17.7832 114.85 18.3699C115.173 18.9566 115.613 19.4259 116.17 19.7779C116.728 20.1152 117.351 20.2839 118.04 20.2839ZM125.951 21.9999V10.8019H128.151V12.2319C128.503 11.7039 128.935 11.2932 129.449 10.9999C129.977 10.6919 130.571 10.5379 131.231 10.5379C131.685 10.5526 132.059 10.6186 132.353 10.7359V12.7159C132.147 12.6279 131.935 12.5692 131.715 12.5399C131.495 12.4959 131.275 12.4739 131.055 12.4739C130.409 12.4739 129.837 12.6499 129.339 13.0019C128.84 13.3392 128.444 13.8379 128.151 14.4979V21.9999H125.951ZM138.911 22.1979C137.826 22.1979 136.997 21.9486 136.425 21.4499C135.853 20.9366 135.567 20.1959 135.567 19.2279V12.6499H133.191V10.8019H135.567V7.94188L137.745 7.41388V10.8019H141.045V12.6499H137.745V18.7219C137.745 19.2939 137.87 19.7046 138.119 19.9539C138.383 20.1886 138.808 20.3059 139.395 20.3059C139.703 20.3059 139.974 20.2839 140.209 20.2399C140.458 20.1959 140.722 20.1299 141.001 20.0419V21.8899C140.708 21.9926 140.363 22.0659 139.967 22.1099C139.586 22.1686 139.234 22.1979 138.911 22.1979ZM146.731 22.2199C145.763 22.2199 144.853 22.0806 144.003 21.8019C143.167 21.5086 142.441 21.0979 141.825 20.5699L143.035 19.1179C143.607 19.5726 144.193 19.9246 144.795 20.1739C145.411 20.4086 146.034 20.5259 146.665 20.5259C147.457 20.5259 148.102 20.3719 148.601 20.0639C149.099 19.7559 149.349 19.3526 149.349 18.8539C149.349 18.4432 149.202 18.1206 148.909 17.8859C148.615 17.6512 148.161 17.4899 147.545 17.4019L145.521 17.1159C144.406 16.9546 143.57 16.6099 143.013 16.0819C142.455 15.5539 142.177 14.8499 142.177 13.9699C142.177 13.2952 142.36 12.7086 142.727 12.2099C143.093 11.6966 143.607 11.3006 144.267 11.0219C144.927 10.7286 145.697 10.5819 146.577 10.5819C147.383 10.5819 148.161 10.6992 148.909 10.9339C149.657 11.1686 150.375 11.5352 151.065 12.0339L149.943 13.4859C149.327 13.0752 148.725 12.7746 148.139 12.5839C147.567 12.3932 146.987 12.2979 146.401 12.2979C145.726 12.2979 145.183 12.4446 144.773 12.7379C144.362 13.0166 144.157 13.3832 144.157 13.8379C144.157 14.2486 144.296 14.5712 144.575 14.8059C144.868 15.0259 145.345 15.1799 146.005 15.2679L148.029 15.5539C149.143 15.7152 149.987 16.0599 150.559 16.5879C151.131 17.1012 151.417 17.7979 151.417 18.6779C151.417 19.3526 151.211 19.9612 150.801 20.5039C150.39 21.0319 149.833 21.4499 149.129 21.7579C148.425 22.0659 147.625 22.2199 146.731 22.2199Z" fill="black"/>
</g>
<defs>
<clipPath id="clip0_342_2893">
<rect width="153" height="29" fill="white" transform="translate(0.5)"/>
</clipPath>
</defs>
</svg>
