<svg width="250" height="170" viewBox="0 0 250 170" fill="none" xmlns="http://www.w3.org/2000/svg">
<g clip-path="url(#clip0_376_1288)">
<path d="M138.368 78.9228H75.289C74.2824 78.9216 73.3173 78.5213 72.6055 77.8095C71.8937 77.0977 71.4933 76.1326 71.4922 75.126V47.4765C71.4933 46.4699 71.8937 45.5048 72.6055 44.793C73.3173 44.0812 74.2824 43.6808 75.289 43.6797H138.368C139.375 43.6808 140.34 44.0812 141.051 44.793C141.763 45.5048 142.164 46.4699 142.165 47.4765V75.126C142.164 76.1326 141.763 77.0977 141.051 77.8095C140.34 78.5213 139.375 78.9216 138.368 78.9228Z" fill="#E6E6E6"/>
<path d="M4.60269 11.1009C7.14469 11.1009 9.20539 9.0402 9.20539 6.4982C9.20539 3.9562 7.14469 1.89551 4.60269 1.89551C2.0607 1.89551 0 3.9562 0 6.4982C0 9.0402 2.0607 11.1009 4.60269 11.1009Z" fill="#6C63FF"/>
<path d="M5.95645 9.74688C4.99258 9.74688 4.05035 9.46106 3.24891 8.92556C2.44748 8.39006 1.82284 7.62893 1.45398 6.73843C1.08512 5.84792 0.988609 4.86803 1.17665 3.92268C1.36469 2.97732 1.82884 2.10896 2.51041 1.4274C3.19197 0.745836 4.06034 0.281687 5.00569 0.0936437C5.95105 -0.0943991 6.93093 0.00211234 7.82144 0.370972C8.71194 0.739831 9.47307 1.36447 10.0086 2.1659C10.5441 2.96734 10.8299 3.90957 10.8299 4.87344C10.8284 6.16551 10.3145 7.40424 9.40088 8.31787C8.48725 9.2315 7.24852 9.74542 5.95645 9.74688ZM5.95645 0.541494C5.09968 0.541494 4.26214 0.795558 3.54975 1.27156C2.83737 1.74756 2.28213 2.42412 1.95426 3.21568C1.62638 4.00724 1.54059 4.87825 1.70774 5.71856C1.87489 6.55888 2.28747 7.33076 2.8933 7.93659C3.49913 8.54242 4.27101 8.955 5.11133 9.12215C5.95164 9.2893 6.82266 9.20351 7.61422 8.87564C8.40578 8.54776 9.08234 7.99253 9.55834 7.28014C10.0343 6.56776 10.2884 5.73022 10.2884 4.87344C10.2871 3.72494 9.83027 2.62385 9.01816 1.81174C8.20604 0.999624 7.10496 0.542802 5.95645 0.541494Z" fill="#3F3D56"/>
<path d="M60.6471 69.0403C63.1891 69.0403 65.2498 66.9797 65.2498 64.4377C65.2498 61.8957 63.1891 59.835 60.6471 59.835C58.1051 59.835 56.0444 61.8957 56.0444 64.4377C56.0444 66.9797 58.1051 69.0403 60.6471 69.0403Z" fill="#E6E6E6"/>
<path d="M62.0009 67.6863C61.037 67.6863 60.0948 67.4005 59.2933 66.865C58.4919 66.3295 57.8673 65.5684 57.4984 64.6779C57.1296 63.7874 57.033 62.8075 57.2211 61.8621C57.4091 60.9168 57.8733 60.0484 58.5548 59.3669C59.2364 58.6853 60.1048 58.2211 61.0501 58.0331C61.9955 57.8451 62.9754 57.9416 63.8659 58.3104C64.7564 58.6793 65.5175 59.3039 66.053 60.1054C66.5885 60.9068 66.8743 61.849 66.8743 62.8129C66.8729 64.105 66.3589 65.3437 65.4453 66.2573C64.5317 67.171 63.2929 67.6849 62.0009 67.6863ZM62.0009 58.4809C61.1441 58.4809 60.3066 58.735 59.5942 59.211C58.8818 59.687 58.3266 60.3636 57.9987 61.1551C57.6708 61.9467 57.585 62.8177 57.7522 63.658C57.9193 64.4983 58.3319 65.2702 58.9377 65.8761C59.5436 66.4819 60.3154 66.8945 61.1558 67.0616C61.9961 67.2288 62.8671 67.143 63.6586 66.8151C64.4502 66.4872 65.1268 65.932 65.6028 65.2196C66.0788 64.5072 66.3328 63.6697 66.3328 62.8129C66.3315 61.6644 65.8747 60.5633 65.0626 59.7512C64.2505 58.9391 63.1494 58.4823 62.0009 58.4809Z" fill="#3F3D56"/>
<path d="M96.3859 34.1146C98.9279 34.1146 100.989 32.0539 100.989 29.5119C100.989 26.9699 98.9279 24.9092 96.3859 24.9092C93.8439 24.9092 91.7832 26.9699 91.7832 29.5119C91.7832 32.0539 93.8439 34.1146 96.3859 34.1146Z" fill="#6C63FF"/>
<path d="M97.7396 32.7606C96.7758 32.7606 95.8335 32.4747 95.0321 31.9392C94.2307 31.4037 93.606 30.6426 93.2372 29.7521C92.8683 28.8616 92.7718 27.8817 92.9599 26.9364C93.1479 25.991 93.612 25.1226 94.2936 24.4411C94.9752 23.7595 95.8435 23.2954 96.7889 23.1073C97.7342 22.9193 98.7141 23.0158 99.6046 23.3846C100.495 23.7535 101.256 24.3781 101.792 25.1796C102.327 25.981 102.613 26.9232 102.613 27.8871C102.612 29.1792 102.098 30.4179 101.184 31.3315C100.27 32.2452 99.0317 32.7591 97.7396 32.7606ZM97.7396 23.5552C96.8829 23.5552 96.0453 23.8092 95.3329 24.2852C94.6206 24.7612 94.0653 25.4378 93.7375 26.2294C93.4096 27.0209 93.3238 27.8919 93.4909 28.7322C93.6581 29.5726 94.0707 30.3444 94.6765 30.9503C95.2823 31.5561 96.0542 31.9687 96.8945 32.1358C97.7348 32.303 98.6059 32.2172 99.3974 31.8893C100.189 31.5614 100.866 31.0062 101.342 30.2938C101.818 29.5814 102.072 28.7439 102.072 27.8871C102.07 26.7386 101.613 25.6375 100.801 24.8254C99.9892 24.0133 98.8882 23.5565 97.7396 23.5552Z" fill="#3F3D56"/>
<path d="M77.2233 52.2939H14.1445C13.1379 52.2927 12.1728 51.8923 11.461 51.1806C10.7492 50.4688 10.3488 49.5037 10.3477 48.4971V20.8477C10.3488 19.8411 10.7492 18.876 11.461 18.1641C12.1728 17.4523 13.1379 17.0519 14.1445 17.0508H77.2234C78.23 17.0519 79.1951 17.4523 79.9069 18.1641C80.6187 18.876 81.0191 19.8411 81.0202 20.8477V48.4971C81.0191 49.5037 80.6187 50.4688 79.9069 51.1806C79.1951 51.8924 78.23 52.2927 77.2233 52.2939Z" fill="#6C63FF"/>
<path d="M81.3377 49.4572H18.2589C17.2163 49.456 16.2169 49.0414 15.4797 48.3042C14.7425 47.567 14.3278 46.5675 14.3267 45.525V17.8755C14.3278 16.833 14.7425 15.8335 15.4797 15.0964C16.2169 14.3592 17.2163 13.9445 18.2589 13.9434H81.3377C82.3802 13.9445 83.3797 14.3592 84.1169 15.0964C84.8541 15.8335 85.2688 16.833 85.27 17.8755V45.525C85.2688 46.5675 84.8541 47.567 84.1169 48.3042C83.3797 49.0414 82.3802 49.456 81.3377 49.4572ZM18.2589 14.4849C17.3599 14.4859 16.4981 14.8434 15.8624 15.4791C15.2267 16.1147 14.8692 16.9766 14.8682 17.8755V45.525C14.8692 46.424 15.2267 47.2858 15.8624 47.9215C16.4981 48.5571 17.3599 48.9147 18.2589 48.9157H81.3377C82.2367 48.9147 83.0985 48.5571 83.7342 47.9215C84.3699 47.2858 84.7274 46.424 84.7285 45.525V17.8755C84.7274 16.9766 84.3699 16.1147 83.7342 15.4791C83.0985 14.8434 82.2367 14.4859 81.3377 14.4849H18.2589Z" fill="#3F3D56"/>
<path d="M142.482 76.0861H79.4034C78.3609 76.0849 77.3614 75.6702 76.6242 74.933C75.887 74.1958 75.4724 73.1963 75.4712 72.1538V44.5044C75.4724 43.4619 75.887 42.4624 76.6242 41.7253C77.3614 40.9881 78.3609 40.5734 79.4034 40.5723H142.482C143.525 40.5734 144.524 40.9881 145.261 41.7253C145.999 42.4624 146.413 43.4619 146.415 44.5044V72.1538C146.413 73.1963 145.999 74.1958 145.261 74.933C144.524 75.6702 143.525 76.0849 142.482 76.0861ZM79.4034 41.1138C78.5045 41.1148 77.6426 41.4723 77.007 42.108C76.3713 42.7436 76.0137 43.6055 76.0127 44.5044V72.1538C76.0137 73.0528 76.3712 73.9146 77.0069 74.5503C77.6426 75.186 78.5045 75.5436 79.4034 75.5446H142.482C143.381 75.5436 144.243 75.186 144.879 74.5503C145.514 73.9146 145.872 73.0528 145.873 72.1538V44.5044C145.872 43.6055 145.514 42.7436 144.879 42.108C144.243 41.4723 143.381 41.1148 142.482 41.1138H79.4034Z" fill="#3F3D56"/>
<path d="M181.863 114.51C181.416 114.509 180.987 114.339 180.661 114.033C180.336 113.728 180.138 113.31 180.109 112.865L179.848 108.877C179.817 108.412 179.973 107.953 180.281 107.602C180.589 107.251 181.023 107.037 181.489 107.006L212.73 104.96C213.724 104.895 214.704 105.228 215.453 105.885C216.203 106.542 216.66 107.47 216.725 108.465C216.79 109.459 216.458 110.439 215.801 111.188C215.143 111.937 214.216 112.395 213.221 112.46L181.98 114.506C181.941 114.508 181.902 114.51 181.863 114.51Z" fill="#6C63FF"/>
<path d="M188.023 115.024C187.568 115.023 187.131 114.846 186.803 114.53C186.476 114.215 186.283 113.784 186.265 113.329L186.043 107.374C186.034 107.143 186.071 106.912 186.151 106.696C186.232 106.479 186.354 106.28 186.511 106.111C186.669 105.941 186.858 105.805 187.068 105.708C187.278 105.612 187.505 105.558 187.736 105.549L213.426 104.589C213.892 104.572 214.346 104.74 214.689 105.058C215.031 105.375 215.233 105.816 215.25 106.282L215.473 112.238C215.481 112.469 215.445 112.699 215.364 112.916C215.284 113.133 215.161 113.331 215.004 113.501C214.847 113.67 214.658 113.807 214.448 113.903C214.238 114 214.011 114.054 213.78 114.062L188.09 115.022C188.068 115.023 188.045 115.024 188.023 115.024Z" fill="#2F2E41"/>
<path d="M218.128 169.926H214.131C213.665 169.925 213.218 169.74 212.888 169.41C212.558 169.08 212.372 168.633 212.372 168.166V134.86C212.372 134.394 212.558 133.947 212.888 133.617C213.218 133.287 213.665 133.101 214.131 133.101H218.128C218.594 133.101 219.041 133.287 219.371 133.617C219.701 133.947 219.887 134.394 219.887 134.86V168.166C219.887 168.633 219.701 169.08 219.371 169.41C219.041 169.74 218.594 169.925 218.128 169.926Z" fill="#2F2E41"/>
<path d="M210.224 169.926H206.228C205.761 169.925 205.314 169.74 204.984 169.41C204.654 169.08 204.468 168.633 204.468 168.166V134.86C204.468 134.394 204.654 133.947 204.984 133.617C205.314 133.287 205.761 133.101 206.228 133.101H210.224C210.69 133.101 211.138 133.287 211.468 133.617C211.797 133.947 211.983 134.394 211.984 134.86V168.166C211.983 168.633 211.797 169.08 211.468 169.41C211.138 169.74 210.69 169.925 210.224 169.926Z" fill="#2F2E41"/>
<path d="M212.059 98.3427C219.685 98.3427 225.867 92.1606 225.867 84.5346C225.867 76.9087 219.685 70.7266 212.059 70.7266C204.433 70.7266 198.25 76.9087 198.25 84.5346C198.25 92.1606 204.433 98.3427 212.059 98.3427Z" fill="#6C63FF"/>
<path d="M205.984 90.6164C205.517 90.6261 205.053 90.5357 204.623 90.3512C204.333 90.2135 204.077 90.0141 203.872 89.767C203.667 89.5198 203.518 89.2309 203.437 88.9204C203.375 88.7005 203.365 88.4693 203.407 88.2449C203.449 88.0204 203.542 87.8086 203.68 87.6263C204.04 87.1635 204.663 86.9434 205.396 86.9997L203.582 81.9234L204.092 81.7412L206.224 87.709L205.743 87.5999C205.186 87.474 204.463 87.5016 204.107 87.9591C204.021 88.0773 203.963 88.2137 203.938 88.3578C203.913 88.502 203.921 88.65 203.963 88.7903C204.025 89.0211 204.136 89.236 204.288 89.4201C204.44 89.6043 204.63 89.7535 204.846 89.8575C205.599 90.1978 206.481 90.0767 207.473 89.8971L207.569 90.4298C207.048 90.5392 206.517 90.6017 205.984 90.6164Z" fill="#2F2E41"/>
<path d="M201.081 82.9199L198.227 83.5195L198.338 84.0494L201.192 83.4498L201.081 82.9199Z" fill="#2F2E41"/>
<path d="M210.089 81.0264L207.235 81.626L207.347 82.1558L210.201 81.5563L210.089 81.0264Z" fill="#2F2E41"/>
<path d="M169.97 115.56L185.535 124.11C185.626 124.17 185.728 124.209 185.835 124.225C185.942 124.242 186.052 124.234 186.155 124.203C186.259 124.173 186.355 124.12 186.436 124.048C186.518 123.976 186.582 123.888 186.625 123.788L190.438 115.818C190.511 115.591 190.499 115.345 190.405 115.126C190.312 114.907 190.142 114.728 189.928 114.623L177.005 107.962C176.846 107.867 176.657 107.833 176.475 107.868C176.293 107.903 176.129 108.004 176.017 108.151L169.562 114.233C169.437 114.455 169.406 114.717 169.475 114.961C169.544 115.206 169.707 115.414 169.929 115.538C169.942 115.546 169.956 115.553 169.97 115.56Z" fill="#3F3D56"/>
<path d="M171.009 114.383L185.601 122.723L189.484 115.724L176.967 108.917L171.009 114.383Z" fill="white"/>
<path d="M183.531 112.019C183.608 111.954 183.61 111.828 183.534 111.737C183.458 111.646 183.333 111.625 183.255 111.689C183.178 111.754 183.176 111.88 183.252 111.972C183.328 112.063 183.453 112.084 183.531 112.019Z" fill="#F2F2F2"/>
<path d="M178.067 119.125C178.119 119.082 178.119 118.998 178.069 118.937C178.018 118.876 177.935 118.862 177.883 118.905C177.832 118.948 177.831 119.033 177.881 119.093C177.932 119.154 178.015 119.168 178.067 119.125Z" fill="#F2F2F2"/>
<path d="M223.588 143.797H200.304C199.694 143.796 199.109 143.553 198.677 143.122C198.246 142.691 198.003 142.106 198.002 141.495L202.877 104.115C202.881 103.508 203.125 102.926 203.556 102.499C203.987 102.071 204.57 101.831 205.177 101.831H213.44C216.741 101.835 219.905 103.148 222.239 105.481C224.573 107.815 225.886 110.979 225.889 114.28V141.495C225.889 142.106 225.646 142.691 225.215 143.122C224.783 143.553 224.198 143.796 223.588 143.797Z" fill="#2F2E41"/>
<path d="M207.684 101.695L201.387 115.503L202.47 103.905C202.467 103.617 202.521 103.332 202.628 103.066C202.735 102.799 202.894 102.556 203.095 102.351C203.296 102.146 203.536 101.983 203.8 101.87C204.064 101.757 204.348 101.698 204.636 101.695H207.684Z" fill="#CCCCCC"/>
<path d="M187.228 128.189C186.888 128.189 186.555 128.091 186.27 127.907C185.985 127.723 185.759 127.46 185.619 127.15L183.984 123.504C183.889 123.293 183.837 123.065 183.83 122.834C183.824 122.603 183.862 122.373 183.945 122.157C184.027 121.941 184.151 121.744 184.31 121.576C184.468 121.407 184.658 121.272 184.869 121.178L213.434 108.363C214.344 107.955 215.378 107.925 216.309 108.28C217.241 108.635 217.993 109.345 218.401 110.254C218.809 111.163 218.839 112.197 218.484 113.129C218.13 114.06 217.42 114.813 216.51 115.221L187.945 128.035C187.72 128.137 187.475 128.189 187.228 128.189Z" fill="#6C63FF"/>
<path d="M195.559 126.307C195.22 126.307 194.887 126.209 194.602 126.025C194.316 125.84 194.091 125.577 193.951 125.267L191.157 119.04C190.967 118.614 190.953 118.13 191.119 117.694C191.285 117.258 191.617 116.905 192.043 116.714L215.499 106.191C215.71 106.097 215.937 106.045 216.168 106.038C216.399 106.031 216.629 106.07 216.845 106.152C217.061 106.234 217.259 106.358 217.427 106.517C217.595 106.676 217.73 106.866 217.825 107.077L220.619 113.304C220.713 113.515 220.765 113.743 220.772 113.974C220.779 114.205 220.74 114.435 220.658 114.651C220.575 114.867 220.451 115.064 220.293 115.232C220.134 115.4 219.944 115.536 219.733 115.63L196.277 126.153C196.051 126.254 195.807 126.307 195.559 126.307Z" fill="#2F2E41"/>
<path d="M208.994 75.8771C206.746 75.049 204.898 77.2309 202.861 77.7304C200.912 78.2083 198.812 77.084 197.771 75.4454C196.557 73.5336 196.858 71.0517 197.963 69.1644C199.173 67.0975 201.328 65.8292 203.611 65.2752C206.229 64.6403 208.956 64.9525 211.54 65.5974C214.018 66.1776 216.42 67.0426 218.699 68.1751C220.759 69.2414 222.712 70.7003 223.916 72.7208C225.011 74.557 225.552 76.8425 225.011 78.9464C224.713 80.0324 224.139 81.0233 223.347 81.8234C222.531 82.6867 221.597 83.4351 220.836 84.3509C219.687 85.7355 218.914 88.0048 220.047 89.6426C220.293 90.0011 220.623 90.2937 221.009 90.4946C221.472 90.7357 221.883 90.035 221.419 89.7932C220.603 89.3685 220.307 88.5066 220.329 87.6278C220.373 86.6305 220.754 85.6776 221.411 84.9252C222.207 83.968 223.192 83.1931 224.033 82.278C224.847 81.4252 225.442 80.3884 225.769 79.2559C226.367 77.0655 225.899 74.6798 224.841 72.7063C223.697 70.5708 221.778 68.9583 219.689 67.7864C217.417 66.511 214.891 65.6563 212.383 64.9775C209.692 64.2492 206.866 63.8391 204.097 64.3431C201.697 64.78 199.351 65.9388 197.841 67.8995C196.432 69.7297 195.759 72.2242 196.44 74.4763C196.764 75.496 197.353 76.4111 198.148 77.1274C198.942 77.8437 199.913 78.3353 200.961 78.5517C202.026 78.7476 203.126 78.6042 204.105 78.1415C205.16 77.6687 206.119 76.9337 207.241 76.6194C207.744 76.4655 208.284 76.4799 208.779 76.6604C209.27 76.8413 209.482 76.0566 208.994 75.8771Z" fill="#2F2E41"/>
<path d="M249.678 169.905H162.959C162.874 169.905 162.792 169.871 162.732 169.811C162.672 169.75 162.638 169.668 162.638 169.583C162.638 169.498 162.672 169.416 162.732 169.355C162.792 169.295 162.874 169.261 162.959 169.261H249.678C249.763 169.261 249.845 169.295 249.906 169.355C249.966 169.416 250 169.498 250 169.583C250 169.669 249.966 169.751 249.906 169.811C249.845 169.872 249.763 169.905 249.678 169.905Z" fill="#3F3D56"/>
</g>
<defs>
<clipPath id="clip0_376_1288">
<rect width="250" height="169.926" fill="white"/>
</clipPath>
</defs>
</svg>
