<svg width="24" height="25" viewBox="0 0 24 25" fill="none" xmlns="http://www.w3.org/2000/svg">
<path d="M15 19.5C15 17.2909 12.3137 15.5 9 15.5C5.68629 15.5 3 17.2909 3 19.5M16.8281 5.67188C17.1996 6.04331 17.4942 6.48427 17.6952 6.96957C17.8962 7.45487 17.9999 7.97533 17.9999 8.50062C17.9999 9.02591 17.8963 9.54497 17.6953 10.0303C17.4943 10.5156 17.1996 10.957 16.8281 11.3285M19 3.5C19.6566 4.15661 20.1775 4.93612 20.5328 5.79402C20.8882 6.65192 21.0718 7.57127 21.0718 8.49985C21.0718 9.42844 20.8886 10.3482 20.5332 11.2061C20.1778 12.064 19.6566 12.8435 19 13.5001M9 12.5C6.79086 12.5 5 10.7091 5 8.5C5 6.29086 6.79086 4.5 9 4.5C11.2091 4.5 13 6.29086 13 8.5C13 10.7091 11.2091 12.5 9 12.5Z" stroke="black" stroke-width="1.5" stroke-linecap="round" stroke-linejoin="round"/>
</svg>
