<svg width="24" height="25" viewBox="0 0 24 25" fill="none" xmlns="http://www.w3.org/2000/svg">
<path d="M9.14648 9.57361C9.31728 9.04732 9.63015 8.57896 10.0508 8.21948C10.4714 7.86001 10.9838 7.62378 11.5303 7.53708C12.0768 7.45038 12.6362 7.5164 13.1475 7.72803C13.6587 7.93966 14.1014 8.28875 14.4268 8.73633C14.7521 9.18391 14.9469 9.71256 14.9904 10.2642C15.0339 10.8158 14.9238 11.3688 14.6727 11.8618C14.4215 12.3548 14.0394 12.7685 13.5676 13.0576C13.0958 13.3467 12.5533 13.4998 12 13.4998V14.5002M12.0498 17.5V17.6L11.9502 17.6002V17.5H12.0498ZM3 18.3002V6.7002C3 5.58009 3 5.01962 3.21799 4.5918C3.40973 4.21547 3.71547 3.90973 4.0918 3.71799C4.51962 3.5 5.08009 3.5 6.2002 3.5H17.8002C18.9203 3.5 19.4796 3.5 19.9074 3.71799C20.2837 3.90973 20.5905 4.21547 20.7822 4.5918C21 5.0192 21 5.57899 21 6.69691V18.3036C21 19.4215 21 19.9805 20.7822 20.4079C20.5905 20.7842 20.2837 21.0905 19.9074 21.2822C19.48 21.5 18.921 21.5 17.8031 21.5H6.19691C5.07899 21.5 4.5192 21.5 4.0918 21.2822C3.71547 21.0905 3.40973 20.7842 3.21799 20.4079C3 19.9801 3 19.4203 3 18.3002Z" stroke="black" stroke-width="1.5" stroke-linecap="round" stroke-linejoin="round"/>
</svg>
