<svg width="24" height="25" viewBox="0 0 24 25" fill="none" xmlns="http://www.w3.org/2000/svg">
<path d="M17 17.5C15.8954 17.5 15 18.3954 15 19.5C15 20.6046 15.8954 21.5 17 21.5C18.1046 21.5 19 20.6046 19 19.5C19 18.3954 18.1046 17.5 17 17.5ZM17 17.5H9.29395C8.83288 17.5 8.60193 17.5 8.41211 17.418C8.24466 17.3456 8.09938 17.2291 7.99354 17.0805C7.8749 16.914 7.82719 16.6913 7.73274 16.2505L5.27148 4.76465C5.17484 4.31363 5.12587 4.08838 5.00586 3.91992C4.90002 3.77135 4.75477 3.65441 4.58732 3.58205C4.39746 3.5 4.16779 3.5 3.70653 3.5H3M6 6.5H18.8732C19.595 6.5 19.9555 6.5 20.1978 6.65036C20.41 6.78206 20.5653 6.98862 20.633 7.229C20.7104 7.50343 20.611 7.84996 20.411 8.54346L19.0264 13.3435C18.9068 13.7581 18.8469 13.965 18.7256 14.1189C18.6185 14.2547 18.4772 14.361 18.317 14.4263C18.1361 14.5 17.9211 14.5 17.4921 14.5H7.73047M8 21.5C6.89543 21.5 6 20.6046 6 19.5C6 18.3954 6.89543 17.5 8 17.5C9.10457 17.5 10 18.3954 10 19.5C10 20.6046 9.10457 21.5 8 21.5Z" stroke="black" stroke-width="1.5" stroke-linecap="round" stroke-linejoin="round"/>
</svg>
