<svg width="24" height="25" viewBox="0 0 24 25" fill="none" xmlns="http://www.w3.org/2000/svg">
<path d="M9 17.5H15M9 14.5H15M13.0004 3.50087C12.9048 3.5 12.7974 3.5 12.6747 3.5H8.2002C7.08009 3.5 6.51962 3.5 6.0918 3.71799C5.71547 3.90973 5.40973 4.21547 5.21799 4.5918C5 5.01962 5 5.58009 5 6.7002V18.3002C5 19.4203 5 19.9801 5.21799 20.4079C5.40973 20.7842 5.71547 21.0905 6.0918 21.2822C6.51921 21.5 7.079 21.5 8.19694 21.5L15.8031 21.5C16.921 21.5 17.48 21.5 17.9074 21.2822C18.2837 21.0905 18.5905 20.7842 18.7822 20.4079C19 19.9805 19 19.4215 19 18.3036V9.82568C19 9.70302 18.9999 9.59553 18.999 9.5M13.0004 3.50087C13.2858 3.50348 13.4657 3.51407 13.6382 3.55547C13.8423 3.60446 14.0379 3.68526 14.2168 3.79492C14.4186 3.91857 14.5918 4.09181 14.9375 4.4375L18.063 7.56298C18.4089 7.90889 18.5809 8.08136 18.7046 8.28319C18.8142 8.46214 18.8953 8.65726 18.9443 8.86133C18.9857 9.03379 18.9964 9.21454 18.999 9.5M13.0004 3.50087L13 6.30021C13 7.42031 13 7.98015 13.218 8.40797C13.4097 8.7843 13.7155 9.09048 14.0918 9.28223C14.5192 9.5 15.079 9.5 16.1969 9.5H18.999" stroke="black" stroke-width="1.5" stroke-linecap="round" stroke-linejoin="round"/>
</svg>
