<svg width="24" height="25" viewBox="0 0 24 25" fill="none" xmlns="http://www.w3.org/2000/svg">
<path d="M3 15.5002V17.3C3 18.4201 3 18.9798 3.21799 19.4076C3.40973 19.7839 3.71547 20.0905 4.0918 20.2822C4.5192 20.5 5.07899 20.5 6.19691 20.5H21.0002M3 15.5002V5.5M3 15.5002L6.8534 12.2891L6.85658 12.2865C7.55366 11.7056 7.90288 11.4146 8.28154 11.2964C8.72887 11.1567 9.21071 11.1788 9.64355 11.3584C10.0105 11.5106 10.3323 11.8324 10.9758 12.4759L10.9822 12.4823C11.6357 13.1358 11.9633 13.4635 12.3362 13.6153C12.7774 13.7951 13.2685 13.8106 13.7207 13.6606C14.1041 13.5334 14.4542 13.2275 15.1543 12.615L21 7.5" stroke="black" stroke-width="1.5" stroke-linecap="round" stroke-linejoin="round"/>
</svg>
