<svg width="16" height="17" viewBox="0 0 16 17" fill="none" xmlns="http://www.w3.org/2000/svg">
<path d="M9.33333 11.1667H12.6667V14.5M6.66667 5.83333H3.33333V2.5M12.945 6.50227C12.5712 5.57711 11.9454 4.77536 11.1387 4.18815C10.3319 3.60094 9.37678 3.25168 8.38151 3.18034C7.38624 3.109 6.39071 3.31827 5.50846 3.78441C4.62622 4.25055 3.89255 4.95503 3.39062 5.81742M3.05469 10.498C3.42848 11.4232 4.05431 12.225 4.86105 12.8122C5.66779 13.3994 6.62392 13.7482 7.61918 13.8195C8.61445 13.8909 9.60917 13.6816 10.4914 13.2155C11.3737 12.7494 12.1068 12.045 12.6088 11.1826" stroke="#616161" stroke-linecap="round" stroke-linejoin="round"/>
</svg>
