<svg width="36" height="35" viewBox="0 0 36 35" fill="none" xmlns="http://www.w3.org/2000/svg">
<path d="M22.3749 24.7917V26.25C22.3749 28.6662 20.4162 30.625 17.9999 30.625C15.5837 30.625 13.6249 28.6662 13.6249 26.25V24.7917M22.3749 24.7917H13.6249M22.3749 24.7917H27.6104C28.1682 24.7917 28.4485 24.7917 28.6743 24.7155C29.1058 24.5699 29.4449 24.2311 29.5904 23.7997C29.6669 23.5729 29.6669 23.2918 29.6669 22.7295C29.6669 22.4835 29.6666 22.3604 29.6474 22.2431C29.611 22.0215 29.5242 21.8113 29.3932 21.6289C29.324 21.5324 29.236 21.4445 29.0626 21.271L28.4945 20.7029C28.3112 20.5196 28.2083 20.271 28.2083 20.0118V14.5833C28.2083 8.94542 23.6378 4.37499 17.9999 4.375C12.362 4.37501 7.79159 8.94544 7.79159 14.5833V20.0119C7.79159 20.2711 7.6884 20.5196 7.50512 20.7029L6.93709 21.2709C6.76311 21.4449 6.67602 21.5323 6.60669 21.6289C6.47567 21.8114 6.38888 22.0215 6.3525 22.2431C6.33325 22.3604 6.33325 22.4835 6.33325 22.7295C6.33325 23.2918 6.33325 23.5729 6.40974 23.7996C6.55528 24.2311 6.8937 24.5699 7.32517 24.7155C7.55106 24.7917 7.83098 24.7917 8.38885 24.7917H13.6249M15.0833 17.5L17.9999 14.5833M17.9999 14.5833L20.9165 11.6667M17.9999 14.5833L15.0833 11.6667M17.9999 14.5833L20.9165 17.5" stroke="black" stroke-width="1.5" stroke-linecap="round" stroke-linejoin="round"/>
</svg>
