<svg width="18" height="18" viewBox="0 0 18 18" fill="none" xmlns="http://www.w3.org/2000/svg">
<path fill-rule="evenodd" clip-rule="evenodd" d="M12.0494 2.94221C12.05 2.55986 12.3602 2.25008 12.7427 2.25008C13.1254 2.25008 13.4358 2.56043 13.4358 2.94327C13.4358 3.32611 13.1254 3.63647 12.7427 3.63647C12.3602 3.63647 12.05 3.32669 12.0494 2.94433V2.94327V2.94221ZM10.9731 2.35827C11.2184 1.61584 11.918 1.08008 12.7427 1.08008C13.5672 1.08008 14.2668 1.61584 14.5121 2.35827H16.5772C16.9003 2.35827 17.1622 2.62019 17.1622 2.94327C17.1622 3.26636 16.9003 3.52827 16.5772 3.52827H14.5121C14.2668 4.2707 13.5672 4.80647 12.7427 4.80647C11.918 4.80647 11.2184 4.2707 10.9731 3.52827H1.66496C1.34187 3.52827 1.07996 3.26636 1.07996 2.94327C1.07996 2.62019 1.34187 2.35827 1.66496 2.35827H10.9731ZM1.66496 8.32316C1.34187 8.32316 1.07996 8.58508 1.07996 8.90816C1.07996 9.23128 1.34187 9.49318 1.66496 9.49318H3.30396C3.54929 10.2356 4.24881 10.7714 5.07347 10.7714C5.89812 10.7714 6.59765 10.2356 6.84297 9.49318H16.5772C16.9003 9.49318 17.1622 9.23128 17.1622 8.90817C17.1622 8.58508 16.9003 8.32317 16.5772 8.32317L6.84297 8.32316C6.59765 7.58073 5.89812 7.04497 5.07347 7.04497C4.24881 7.04497 3.54928 7.58073 3.30396 8.32316H1.66496ZM1.66496 14.288C1.34187 14.288 1.07996 14.55 1.07996 14.873C1.07996 15.1961 1.34187 15.458 1.66496 15.458H6.71247C6.95779 16.2005 7.65732 16.7363 8.48198 16.7363C9.30663 16.7363 10.0062 16.2005 10.2515 15.458H16.5772C16.9003 15.458 17.1622 15.1961 17.1622 14.873C17.1622 14.55 16.9003 14.288 16.5772 14.288H10.2515C10.0062 13.5456 9.30663 13.0098 8.48198 13.0098C7.65732 13.0098 6.95779 13.5456 6.71247 14.288H1.66496ZM9.17514 14.873C9.17514 14.4902 8.86482 14.1798 8.48198 14.1798C8.09914 14.1798 7.78879 14.4902 7.78879 14.873C7.78879 15.2559 8.09914 15.5663 8.48198 15.5663C8.86482 15.5663 9.17514 15.2559 9.17514 14.873ZM5.07347 8.21497C4.69063 8.21497 4.38027 8.52533 4.38027 8.90816C4.38027 9.29104 4.69063 9.60136 5.07347 9.60136C5.4563 9.60136 5.76666 9.29104 5.76666 8.90816C5.76666 8.52533 5.4563 8.21497 5.07347 8.21497Z" fill="black"/>
</svg>
