<svg width="25" height="25" viewBox="0 0 25 25" fill="none" xmlns="http://www.w3.org/2000/svg">
<path d="M17.1001 20.5C17.1001 18.8431 14.8615 17.5 12.1001 17.5C9.33867 17.5 7.1001 18.8431 7.1001 20.5M21.1001 17.5004C21.1001 16.2702 19.866 15.2129 18.1001 14.75M3.1001 17.5004C3.1001 16.2702 4.33419 15.2129 6.1001 14.75M18.1001 10.7361C18.7138 10.1868 19.1001 9.3885 19.1001 8.5C19.1001 6.84315 17.757 5.5 16.1001 5.5C15.3317 5.5 14.6309 5.78885 14.1001 6.26389M6.1001 10.7361C5.48635 10.1868 5.1001 9.3885 5.1001 8.5C5.1001 6.84315 6.44324 5.5 8.1001 5.5C8.86845 5.5 9.56934 5.78885 10.1001 6.26389M12.1001 14.5C10.4432 14.5 9.1001 13.1569 9.1001 11.5C9.1001 9.84315 10.4432 8.5 12.1001 8.5C13.757 8.5 15.1001 9.84315 15.1001 11.5C15.1001 13.1569 13.757 14.5 12.1001 14.5Z" stroke="#0066FF" stroke-width="1.5" stroke-linecap="round" stroke-linejoin="round"/>
</svg>
