<svg width="25" height="24" viewBox="0 0 25 24" fill="none" xmlns="http://www.w3.org/2000/svg">
<path d="M3.5 12H8.5M3.5 12C3.5 16.9706 7.52944 21 12.5 21M3.5 12C3.5 7.02944 7.52944 3 12.5 3M8.5 12H16.5M8.5 12C8.5 16.9706 10.2909 21 12.5 21M8.5 12C8.5 7.02944 10.2909 3 12.5 3M16.5 12H21.5M16.5 12C16.5 7.02944 14.7091 3 12.5 3M16.5 12C16.5 16.9706 14.7091 21 12.5 21M21.5 12C21.5 7.02944 17.4706 3 12.5 3M21.5 12C21.5 16.9706 17.4706 21 12.5 21" stroke="inherit" stroke-width="1.5" stroke-linecap="round" stroke-linejoin="round"/>
</svg>
