<svg width="28" height="28" viewBox="0 0 28 28" fill="none" xmlns="http://www.w3.org/2000/svg">
<path d="M14 8.1665C14.6443 8.1665 15.1667 7.64417 15.1667 6.99984C15.1667 6.35551 14.6443 5.83317 14 5.83317C13.3557 5.83317 12.8333 6.35551 12.8333 6.99984C12.8333 7.64417 13.3557 8.1665 14 8.1665Z" fill="black"/>
<path d="M14 15.1665C14.6443 15.1665 15.1667 14.6442 15.1667 13.9998C15.1667 13.3555 14.6443 12.8332 14 12.8332C13.3557 12.8332 12.8333 13.3555 12.8333 13.9998C12.8333 14.6442 13.3557 15.1665 14 15.1665Z" fill="black"/>
<path d="M14 22.1665C14.6443 22.1665 15.1667 21.6442 15.1667 20.9998C15.1667 20.3555 14.6443 19.8332 14 19.8332C13.3557 19.8332 12.8333 20.3555 12.8333 20.9998C12.8333 21.6442 13.3557 22.1665 14 22.1665Z" fill="black"/>
<path d="M14 8.1665C14.6443 8.1665 15.1667 7.64417 15.1667 6.99984C15.1667 6.35551 14.6443 5.83317 14 5.83317C13.3557 5.83317 12.8333 6.35551 12.8333 6.99984C12.8333 7.64417 13.3557 8.1665 14 8.1665Z" stroke="black" stroke-linecap="round" stroke-linejoin="round"/>
<path d="M14 15.1665C14.6443 15.1665 15.1667 14.6442 15.1667 13.9998C15.1667 13.3555 14.6443 12.8332 14 12.8332C13.3557 12.8332 12.8333 13.3555 12.8333 13.9998C12.8333 14.6442 13.3557 15.1665 14 15.1665Z" stroke="black" stroke-linecap="round" stroke-linejoin="round"/>
<path d="M14 22.1665C14.6443 22.1665 15.1667 21.6442 15.1667 20.9998C15.1667 20.3555 14.6443 19.8332 14 19.8332C13.3557 19.8332 12.8333 20.3555 12.8333 20.9998C12.8333 21.6442 13.3557 22.1665 14 22.1665Z" stroke="black" stroke-linecap="round" stroke-linejoin="round"/>
</svg>
