<svg width="18" height="18" viewBox="0 0 18 18" fill="none" xmlns="http://www.w3.org/2000/svg">
<path fill-rule="evenodd" clip-rule="evenodd" d="M6.65113 1.97927C6.87063 1.74202 7.22868 1.7397 7.45086 1.9741C7.52773 2.05519 7.57825 2.15399 7.60238 2.25837C7.62572 2.32154 7.63846 2.38983 7.63846 2.46109V15.4345C7.63846 15.7575 7.37655 16.0195 7.05346 16.0195C6.73038 16.0195 6.46846 15.7575 6.46846 15.4345V3.8951L3.03774 7.60311C2.81823 7.84036 2.46018 7.84268 2.238 7.60828C2.01583 7.37388 2.01366 6.99155 2.23317 6.75431L6.65113 1.97927ZM10.3964 2.46102C10.3964 2.13794 10.6583 1.87602 10.9814 1.87602C11.3045 1.87602 11.5664 2.13794 11.5664 2.46102V13.9558L14.9995 10.2899C15.2203 10.0541 15.5784 10.0541 15.7993 10.2899C16.0201 10.5257 16.0201 10.9081 15.7993 11.1439L11.4334 15.8059C11.4174 15.8253 11.4002 15.8437 11.3818 15.8609C11.1609 16.0967 10.8024 16.0973 10.5815 15.8615C10.4679 15.7548 10.3964 15.6026 10.3964 15.4344V2.46102Z" fill="black"/>
</svg>
