<svg width="17" height="17" viewBox="0 0 17 17" fill="none" xmlns="http://www.w3.org/2000/svg">
<path d="M1.65393 7.32194C1.43205 7.11675 1.55257 6.7458 1.85269 6.71021L6.10522 6.20582C6.22754 6.19131 6.33379 6.1145 6.38538 6.00265L8.17904 2.11405C8.30562 1.83962 8.69576 1.83957 8.82235 2.114L10.616 6.00257C10.6676 6.11442 10.7732 6.19144 10.8955 6.20594L15.1482 6.71021C15.4484 6.7458 15.5685 7.11686 15.3467 7.32205L12.203 10.2297C12.1126 10.3134 12.0723 10.4379 12.0963 10.5587L12.9306 14.7589C12.9895 15.0553 12.6741 15.285 12.4103 15.1373L8.67364 13.0452C8.56616 12.985 8.43559 12.9853 8.32811 13.0454L4.59102 15.1368C4.3273 15.2844 4.01125 15.0553 4.07015 14.7588L4.9046 10.5589C4.92861 10.4381 4.88845 10.3133 4.79801 10.2297L1.65393 7.32194Z" fill="#0066FF" stroke="#0066FF" stroke-linecap="round" stroke-linejoin="round"/>
</svg>
