<svg width="19" height="18" viewBox="0 0 19 18" fill="none" xmlns="http://www.w3.org/2000/svg">
<path d="M9.5 6.33728V9.33728M5.9988 2.95312L3.45312 5.4988L3.45081 5.50097C3.19293 5.75886 3.06368 5.88811 2.97119 6.03903C2.88895 6.17324 2.82819 6.31972 2.79145 6.47278C2.75 6.64541 2.75 6.82879 2.75 7.19568V10.8043C2.75 11.1712 2.75 11.3546 2.79145 11.5273C2.82819 11.6803 2.88895 11.8266 2.97119 11.9608C3.06392 12.1121 3.19386 12.2421 3.45312 12.5013L5.9988 15.047C6.25823 15.3064 6.38766 15.4359 6.53903 15.5286C6.67324 15.6109 6.81936 15.6719 6.97241 15.7086C7.14478 15.75 7.32787 15.75 7.69364 15.75H11.3056C11.6714 15.75 11.8553 15.75 12.0276 15.7086C12.1807 15.6719 12.327 15.6109 12.4612 15.5286C12.6126 15.4359 12.7423 15.3064 13.0017 15.047L15.5474 12.5013C15.8068 12.2419 15.9362 12.1122 16.029 11.9608C16.1113 11.8266 16.1715 11.6803 16.2083 11.5273C16.2497 11.3546 16.25 11.1712 16.25 10.8043V7.19568C16.25 6.82879 16.2497 6.64541 16.2083 6.47278C16.1715 6.31972 16.1113 6.17324 16.029 6.03903C15.9362 5.88766 15.8068 5.75821 15.5474 5.4988L13.0017 2.95312C12.7424 2.69386 12.6125 2.56392 12.4612 2.47119C12.327 2.38895 12.1807 2.32819 12.0276 2.29145C11.855 2.25 11.6708 2.25 11.304 2.25H7.69531C7.32843 2.25 7.14504 2.25 6.97241 2.29145C6.81936 2.32819 6.67324 2.38895 6.53903 2.47119C6.38903 2.56311 6.26079 2.69135 6.00605 2.9461L5.9988 2.95312ZM9.53735 11.5873V11.6623L9.46265 11.6624V11.5873H9.53735Z" stroke="inherit" stroke-width="1.5" stroke-linecap="round" stroke-linejoin="round"/>
</svg>
