<svg width="27" height="28" viewBox="0 0 27 28" fill="none" xmlns="http://www.w3.org/2000/svg">
<path d="M8.44849 22.777C9.93516 23.6344 11.6601 24.1249 13.4996 24.1249C19.0915 24.1249 23.625 19.5919 23.625 14C23.625 8.40812 19.0919 3.875 13.5 3.875C7.90812 3.875 3.375 8.40812 3.375 14C3.375 15.8395 3.86555 17.5644 4.72297 19.0511L4.72629 19.0569C4.80879 19.1999 4.85039 19.272 4.86923 19.3402C4.88701 19.4045 4.89197 19.4623 4.88742 19.5289C4.88253 19.6004 4.85843 19.6745 4.80902 19.8228L3.94409 22.4175L3.943 22.4209C3.76051 22.9684 3.66927 23.2421 3.73431 23.4245C3.79102 23.5836 3.9169 23.7091 4.07593 23.7658C4.25792 23.8307 4.53043 23.7399 5.07549 23.5582L5.08228 23.5557L7.67705 22.6907C7.8248 22.6415 7.8999 22.6165 7.97129 22.6116C8.03784 22.6071 8.09525 22.6131 8.15955 22.6309C8.22789 22.6498 8.30006 22.6914 8.44384 22.7743L8.44849 22.777Z" stroke="inherit" stroke-width="1.5" stroke-linecap="round" stroke-linejoin="round"/>
</svg>
