<svg width="28" height="28" viewBox="0 0 28 28" fill="none" xmlns="http://www.w3.org/2000/svg">
<path d="M19.8334 13.9999C19.8334 14.6443 20.3557 15.1666 21 15.1666C21.6444 15.1666 22.1667 14.6443 22.1667 13.9999C22.1667 13.3556 21.6444 12.8333 21 12.8333C20.3557 12.8333 19.8334 13.3556 19.8334 13.9999Z" fill="black"/>
<path d="M12.8334 13.9999C12.8334 14.6443 13.3557 15.1666 14 15.1666C14.6444 15.1666 15.1667 14.6443 15.1667 13.9999C15.1667 13.3556 14.6444 12.8333 14 12.8333C13.3557 12.8333 12.8334 13.3556 12.8334 13.9999Z" fill="black"/>
<path d="M5.83337 13.9999C5.83337 14.6443 6.35571 15.1666 7.00004 15.1666C7.64437 15.1666 8.16671 14.6443 8.16671 13.9999C8.16671 13.3556 7.64437 12.8333 7.00004 12.8333C6.35571 12.8333 5.83337 13.3556 5.83337 13.9999Z" fill="black"/>
<path d="M19.8334 13.9999C19.8334 14.6443 20.3557 15.1666 21 15.1666C21.6444 15.1666 22.1667 14.6443 22.1667 13.9999C22.1667 13.3556 21.6444 12.8333 21 12.8333C20.3557 12.8333 19.8334 13.3556 19.8334 13.9999Z" stroke="black" stroke-linecap="round" stroke-linejoin="round"/>
<path d="M12.8334 13.9999C12.8334 14.6443 13.3557 15.1666 14 15.1666C14.6444 15.1666 15.1667 14.6443 15.1667 13.9999C15.1667 13.3556 14.6444 12.8333 14 12.8333C13.3557 12.8333 12.8334 13.3556 12.8334 13.9999Z" stroke="black" stroke-linecap="round" stroke-linejoin="round"/>
<path d="M5.83337 13.9999C5.83337 14.6443 6.35571 15.1666 7.00004 15.1666C7.64437 15.1666 8.16671 14.6443 8.16671 13.9999C8.16671 13.3556 7.64437 12.8333 7.00004 12.8333C6.35571 12.8333 5.83337 13.3556 5.83337 13.9999Z" stroke="black" stroke-linecap="round" stroke-linejoin="round"/>
</svg>
