<svg width="294" height="38" viewBox="0 0 294 38" fill="none" xmlns="http://www.w3.org/2000/svg">
<defs>
<linearGradient id="paint0_linear_1054_3824" x1="11.8652" y1="17.5714" x2="22.0379" y2="2.96454" gradientUnits="userSpaceOnUse">
<stop stop-color="#0066FF"/>
<stop offset="1" stop-color="#003D99"/>
</linearGradient>
<clipPath id="clip0_1054_3824">
<rect width="30.72" height="32" fill="white" transform="translate(0.640625 3)"/>
</clipPath>
</defs>
<g clip-path="url(#clip0_1054_3824)">
<path fill-rule="evenodd" clip-rule="evenodd" d="M16.6406 19V35C7.80407 35 0.640625 27.8366 0.640625 19C0.640625 10.1634 7.80407 3 16.6406 3H25.2168C28.6099 3 31.3606 5.75069 31.3606 9.14385V19H16.6406Z" fill="url(#paint0_linear_1054_3824)"/>
<path d="M16.6408 22.8402C18.7616 22.8402 20.4808 21.1209 20.4808 19.0002C20.4808 16.8794 18.7616 15.1602 16.6408 15.1602C14.52 15.1602 12.8008 16.8794 12.8008 19.0002C12.8008 21.1209 14.52 22.8402 16.6408 22.8402Z" fill="white"/>
<path fill-rule="evenodd" clip-rule="evenodd" d="M16.6406 22.84C18.7614 22.84 20.4806 21.1208 20.4806 19H31.3606V28.8563C31.3606 32.2493 28.6099 35 25.2168 35H16.6406V22.84Z" fill="#0066FF"/>
</g>
<path d="M54.7573 28.808C53.32 28.808 51.976 28.5467 50.7253 28.024C49.4933 27.5013 48.4107 26.7827 47.4773 25.868C46.544 24.9347 45.816 23.8613 45.2933 22.648C44.7707 21.416 44.5093 20.1 44.5093 18.7C44.5093 17.3 44.7613 15.9933 45.2653 14.78C45.788 13.548 46.516 12.4747 47.4493 11.56C48.3827 10.6267 49.4653 9.89867 50.6973 9.376C51.9293 8.85333 53.264 8.592 54.7013 8.592C56.2507 8.592 57.716 8.89067 59.0973 9.488C60.4787 10.0853 61.6453 10.916 62.5973 11.98L60.5813 13.94C59.872 13.1 58.9947 12.456 57.9493 12.008C56.9227 11.5413 55.84 11.308 54.7013 11.308C53.6747 11.308 52.7227 11.4947 51.8453 11.868C50.9867 12.2413 50.2307 12.764 49.5773 13.436C48.924 14.0893 48.4107 14.864 48.0373 15.76C47.6827 16.656 47.5053 17.636 47.5053 18.7C47.5053 19.7453 47.6827 20.7253 48.0373 21.64C48.4107 22.536 48.924 23.32 49.5773 23.992C50.2493 24.664 51.024 25.1867 51.9013 25.56C52.7787 25.9333 53.7307 26.12 54.7573 26.12C55.9147 26.12 56.96 25.8773 57.8933 25.392C58.8453 24.9067 59.62 24.244 60.2173 23.404C60.8147 22.5453 61.1787 21.584 61.3093 20.52H54.7853V17.944H64.3893V18.952C64.3893 20.352 64.1467 21.6493 63.6613 22.844C63.176 24.0387 62.4947 25.084 61.6173 25.98C60.7587 26.876 59.7413 27.576 58.5653 28.08C57.3893 28.5653 56.12 28.808 54.7573 28.808ZM67.1344 28.5V14.248H69.9344V16.068C70.3824 15.396 70.9331 14.8733 71.5864 14.5C72.2584 14.108 73.0144 13.912 73.8544 13.912C74.4331 13.9307 74.9091 14.0147 75.2824 14.164V16.684C75.0211 16.572 74.7504 16.4973 74.4704 16.46C74.1904 16.404 73.9104 16.376 73.6304 16.376C72.8091 16.376 72.0811 16.6 71.4464 17.048C70.8118 17.4773 70.3078 18.112 69.9344 18.952V28.5H67.1344ZM81.4588 28.752C80.4322 28.752 79.5268 28.5747 78.7428 28.22C77.9588 27.8467 77.3428 27.3333 76.8948 26.68C76.4468 26.0267 76.2228 25.2707 76.2228 24.412C76.2228 23.068 76.7362 22.0133 77.7628 21.248C78.7895 20.464 80.1988 20.072 81.9908 20.072C83.3908 20.072 84.6882 20.3427 85.8828 20.884V19.372C85.8828 18.3453 85.5842 17.58 84.9868 17.076C84.4082 16.572 83.5495 16.32 82.4108 16.32C81.7575 16.32 81.0762 16.4227 80.3668 16.628C79.6575 16.8147 78.8642 17.1133 77.9868 17.524L76.9508 15.424C78.0335 14.92 79.0415 14.556 79.9748 14.332C80.9082 14.0893 81.8508 13.968 82.8028 13.968C84.6508 13.968 86.0788 14.4067 87.0868 15.284C88.1135 16.1613 88.6268 17.412 88.6268 19.036V28.5H85.8828V27.268C85.2482 27.772 84.5668 28.1453 83.8388 28.388C83.1108 28.6307 82.3175 28.752 81.4588 28.752ZM78.9108 24.356C78.9108 25.0467 79.2002 25.6067 79.7788 26.036C80.3762 26.4467 81.1508 26.652 82.1028 26.652C82.8495 26.652 83.5308 26.5493 84.1468 26.344C84.7815 26.12 85.3602 25.7747 85.8828 25.308V22.9C85.3415 22.5827 84.7722 22.3587 84.1748 22.228C83.5962 22.0787 82.9428 22.004 82.2148 22.004C81.1882 22.004 80.3762 22.2187 79.7788 22.648C79.2002 23.0587 78.9108 23.628 78.9108 24.356ZM91.8532 28.5V14.248H94.6532V28.5H91.8532ZM93.2532 11.952C92.7865 11.952 92.3852 11.784 92.0492 11.448C91.7132 11.0933 91.5452 10.6827 91.5452 10.216C91.5452 9.73067 91.7132 9.32933 92.0492 9.012C92.3852 8.676 92.7865 8.508 93.2532 8.508C93.7385 8.508 94.1492 8.676 94.4852 9.012C94.8212 9.32933 94.9892 9.73067 94.9892 10.216C94.9892 10.6827 94.8212 11.0933 94.4852 11.448C94.1492 11.784 93.7385 11.952 93.2532 11.952ZM97.9508 28.5V14.248H100.751V15.704C101.852 14.5467 103.28 13.968 105.035 13.968C106.136 13.968 107.097 14.2013 107.919 14.668C108.759 15.1347 109.412 15.788 109.879 16.628C110.364 17.468 110.607 18.4387 110.607 19.54V28.5H107.807V20.016C107.807 18.896 107.489 18.0187 106.855 17.384C106.239 16.7307 105.371 16.404 104.251 16.404C103.504 16.404 102.832 16.5627 102.235 16.88C101.637 17.1973 101.143 17.6547 100.751 18.252V28.5H97.9508ZM120.53 28.752C119.167 28.752 117.926 28.4253 116.806 27.772C115.686 27.1187 114.799 26.232 114.146 25.112C113.511 23.992 113.194 22.7413 113.194 21.36C113.194 19.9787 113.52 18.7373 114.174 17.636C114.827 16.516 115.704 15.6293 116.806 14.976C117.926 14.304 119.167 13.968 120.53 13.968C121.612 13.968 122.648 14.1733 123.638 14.584C124.646 14.9947 125.514 15.5733 126.242 16.32L124.506 18.252C123.964 17.6547 123.358 17.2067 122.686 16.908C122.014 16.6093 121.314 16.46 120.586 16.46C119.727 16.46 118.943 16.6747 118.234 17.104C117.543 17.5333 116.992 18.1213 116.582 18.868C116.171 19.6147 115.966 20.4453 115.966 21.36C115.966 22.2747 116.171 23.1053 116.582 23.852C116.992 24.5987 117.552 25.196 118.262 25.644C118.971 26.0733 119.764 26.288 120.642 26.288C121.37 26.288 122.051 26.148 122.686 25.868C123.32 25.5693 123.918 25.14 124.478 24.58L126.186 26.372C125.439 27.1373 124.571 27.7253 123.582 28.136C122.611 28.5467 121.594 28.752 120.53 28.752ZM134.627 28.5V8.9H138.575L144.707 21.444L150.839 8.9H154.759V28.5H151.987V12.484L144.679 27.1L137.371 12.484V28.5H134.627ZM165.24 28.752C163.84 28.752 162.571 28.4253 161.432 27.772C160.312 27.1187 159.416 26.232 158.744 25.112C158.091 23.992 157.764 22.7413 157.764 21.36C157.764 19.9973 158.081 18.7653 158.716 17.664C159.351 16.544 160.209 15.6573 161.292 15.004C162.375 14.332 163.579 13.996 164.904 13.996C166.229 13.996 167.405 14.332 168.432 15.004C169.459 15.6573 170.271 16.5533 170.868 17.692C171.484 18.812 171.792 20.0813 171.792 21.5V22.284H160.564C160.713 23.068 161.003 23.768 161.432 24.384C161.88 25 162.44 25.4853 163.112 25.84C163.803 26.1947 164.549 26.372 165.352 26.372C166.043 26.372 166.705 26.2693 167.34 26.064C167.993 25.84 168.535 25.5227 168.964 25.112L170.756 26.876C169.916 27.5107 169.048 27.9867 168.152 28.304C167.275 28.6027 166.304 28.752 165.24 28.752ZM160.592 20.184H169.02C168.908 19.4373 168.647 18.784 168.236 18.224C167.844 17.6453 167.349 17.1973 166.752 16.88C166.173 16.544 165.539 16.376 164.848 16.376C164.139 16.376 163.485 16.5347 162.888 16.852C162.291 17.1693 161.787 17.6173 161.376 18.196C160.984 18.756 160.723 19.4187 160.592 20.184ZM174.459 28.5V14.248H177.259V15.62C178.323 14.5187 179.657 13.968 181.263 13.968C182.233 13.968 183.092 14.1827 183.839 14.612C184.604 15.0413 185.211 15.62 185.659 16.348C186.256 15.564 186.956 14.976 187.759 14.584C188.561 14.1733 189.467 13.968 190.475 13.968C191.539 13.968 192.463 14.2013 193.247 14.668C194.049 15.1347 194.675 15.788 195.123 16.628C195.589 17.468 195.823 18.4387 195.823 19.54V28.5H193.023V20.016C193.023 18.896 192.724 18.0187 192.127 17.384C191.548 16.7307 190.755 16.404 189.747 16.404C189.056 16.404 188.431 16.5627 187.871 16.88C187.311 17.1973 186.825 17.6827 186.415 18.336C186.452 18.5227 186.48 18.7187 186.499 18.924C186.517 19.1293 186.527 19.3347 186.527 19.54V28.5H183.755V20.016C183.755 18.896 183.456 18.0187 182.859 17.384C182.28 16.7307 181.487 16.404 180.479 16.404C179.807 16.404 179.2 16.5533 178.659 16.852C178.117 17.132 177.651 17.5613 177.259 18.14V28.5H174.459ZM199.041 28.5V8.9L201.841 8.368V15.592C203.035 14.5467 204.482 14.024 206.181 14.024C207.525 14.024 208.738 14.3507 209.821 15.004C210.922 15.6573 211.79 16.5347 212.425 17.636C213.059 18.7373 213.377 19.9787 213.377 21.36C213.377 22.7413 213.05 23.992 212.397 25.112C211.762 26.2133 210.894 27.0907 209.793 27.744C208.71 28.3973 207.487 28.724 206.125 28.724C205.341 28.724 204.575 28.6027 203.829 28.36C203.101 28.0987 202.429 27.7347 201.813 27.268V28.5H199.041ZM205.817 26.288C206.731 26.288 207.543 26.0733 208.253 25.644C208.981 25.2147 209.559 24.636 209.989 23.908C210.418 23.1613 210.633 22.3213 210.633 21.388C210.633 20.4547 210.418 19.6147 209.989 18.868C209.559 18.1213 208.981 17.5333 208.253 17.104C207.543 16.6747 206.731 16.46 205.817 16.46C205.014 16.46 204.267 16.6093 203.577 16.908C202.886 17.2067 202.307 17.6267 201.841 18.168V24.608C202.307 25.1307 202.886 25.5413 203.577 25.84C204.286 26.1387 205.033 26.288 205.817 26.288ZM222.88 28.752C221.48 28.752 220.211 28.4253 219.072 27.772C217.952 27.1187 217.056 26.232 216.384 25.112C215.731 23.992 215.404 22.7413 215.404 21.36C215.404 19.9973 215.722 18.7653 216.356 17.664C216.991 16.544 217.85 15.6573 218.932 15.004C220.015 14.332 221.219 13.996 222.544 13.996C223.87 13.996 225.046 14.332 226.072 15.004C227.099 15.6573 227.911 16.5533 228.508 17.692C229.124 18.812 229.432 20.0813 229.432 21.5V22.284H218.204C218.354 23.068 218.643 23.768 219.072 24.384C219.52 25 220.08 25.4853 220.752 25.84C221.443 26.1947 222.19 26.372 222.992 26.372C223.683 26.372 224.346 26.2693 224.98 26.064C225.634 25.84 226.175 25.5227 226.604 25.112L228.396 26.876C227.556 27.5107 226.688 27.9867 225.792 28.304C224.915 28.6027 223.944 28.752 222.88 28.752ZM218.232 20.184H226.66C226.548 19.4373 226.287 18.784 225.876 18.224C225.484 17.6453 224.99 17.1973 224.392 16.88C223.814 16.544 223.179 16.376 222.488 16.376C221.779 16.376 221.126 16.5347 220.528 16.852C219.931 17.1693 219.427 17.6173 219.016 18.196C218.624 18.756 218.363 19.4187 218.232 20.184ZM232.099 28.5V14.248H234.899V16.068C235.347 15.396 235.898 14.8733 236.551 14.5C237.223 14.108 237.979 13.912 238.819 13.912C239.398 13.9307 239.874 14.0147 240.247 14.164V16.684C239.986 16.572 239.715 16.4973 239.435 16.46C239.155 16.404 238.875 16.376 238.595 16.376C237.774 16.376 237.046 16.6 236.411 17.048C235.777 17.4773 235.273 18.112 234.899 18.952V28.5H232.099ZM247.39 28.78C246.158 28.78 245.001 28.6027 243.918 28.248C242.854 27.8747 241.93 27.352 241.146 26.68L242.686 24.832C243.414 25.4107 244.161 25.8587 244.926 26.176C245.71 26.4747 246.503 26.624 247.306 26.624C248.314 26.624 249.135 26.428 249.77 26.036C250.405 25.644 250.722 25.1307 250.722 24.496C250.722 23.9733 250.535 23.5627 250.162 23.264C249.789 22.9653 249.21 22.76 248.426 22.648L245.85 22.284C244.431 22.0787 243.367 21.64 242.658 20.968C241.949 20.296 241.594 19.4 241.594 18.28C241.594 17.4213 241.827 16.6747 242.294 16.04C242.761 15.3867 243.414 14.8827 244.254 14.528C245.094 14.1547 246.074 13.968 247.194 13.968C248.221 13.968 249.21 14.1173 250.162 14.416C251.114 14.7147 252.029 15.1813 252.906 15.816L251.478 17.664C250.694 17.1413 249.929 16.7587 249.182 16.516C248.454 16.2733 247.717 16.152 246.97 16.152C246.111 16.152 245.421 16.3387 244.898 16.712C244.375 17.0667 244.114 17.5333 244.114 18.112C244.114 18.6347 244.291 19.0453 244.646 19.344C245.019 19.624 245.626 19.82 246.466 19.932L249.042 20.296C250.461 20.5013 251.534 20.94 252.262 21.612C252.99 22.2653 253.354 23.152 253.354 24.272C253.354 25.1307 253.093 25.9053 252.57 26.596C252.047 27.268 251.338 27.8 250.442 28.192C249.546 28.584 248.529 28.78 247.39 28.78ZM255.506 28.5V8.9L258.306 8.284V15.704C259.407 14.5467 260.835 13.968 262.59 13.968C263.691 13.968 264.652 14.2013 265.474 14.668C266.314 15.1347 266.967 15.788 267.434 16.628C267.919 17.468 268.162 18.4387 268.162 19.54V28.5H265.362V20.016C265.362 18.896 265.044 18.0187 264.41 17.384C263.775 16.7307 262.907 16.404 261.806 16.404C261.059 16.404 260.387 16.5627 259.79 16.88C259.192 17.1973 258.698 17.6547 258.306 18.252V28.5H255.506ZM271.392 28.5V14.248H274.192V28.5H271.392ZM272.792 11.952C272.326 11.952 271.924 11.784 271.588 11.448C271.252 11.0933 271.084 10.6827 271.084 10.216C271.084 9.73067 271.252 9.32933 271.588 9.012C271.924 8.676 272.326 8.508 272.792 8.508C273.278 8.508 273.688 8.676 274.024 9.012C274.36 9.32933 274.528 9.73067 274.528 10.216C274.528 10.6827 274.36 11.0933 274.024 11.448C273.688 11.784 273.278 11.952 272.792 11.952ZM277.49 34.212V14.248H280.262V15.62C281.457 14.556 282.913 14.024 284.63 14.024C285.974 14.024 287.187 14.3507 288.27 15.004C289.371 15.6573 290.239 16.5347 290.874 17.636C291.509 18.7373 291.826 19.9787 291.826 21.36C291.826 22.7413 291.499 23.992 290.846 25.112C290.211 26.2133 289.343 27.0907 288.242 27.744C287.159 28.3973 285.937 28.724 284.574 28.724C283.79 28.724 283.034 28.6027 282.306 28.36C281.578 28.0987 280.906 27.7347 280.29 27.268V34.212H277.49ZM284.266 26.288C285.181 26.288 285.993 26.0733 286.702 25.644C287.43 25.2147 288.009 24.636 288.438 23.908C288.867 23.1613 289.082 22.3213 289.082 21.388C289.082 20.4547 288.867 19.6147 288.438 18.868C288.009 18.1213 287.43 17.5333 286.702 17.104C285.993 16.6747 285.181 16.46 284.266 16.46C283.463 16.46 282.717 16.6093 282.026 16.908C281.335 17.2067 280.757 17.6267 280.29 18.168V24.608C280.757 25.1307 281.335 25.5413 282.026 25.84C282.735 26.1387 283.482 26.288 284.266 26.288Z" fill="#1A1A1B"/>
</svg>
