<svg width="113" height="36" viewBox="0 0 113 36" fill="none" xmlns="http://www.w3.org/2000/svg">
<defs>
<linearGradient id="paint0_linear_1135_1841" x1="8.41845" y1="16.9286" x2="16.048" y2="5.9734" gradientUnits="userSpaceOnUse">
<stop stop-color="#0066FF"/>
<stop offset="1" stop-color="#003D99"/>
</linearGradient>
<clipPath id="clip0_1135_1841">
<rect width="23.04" height="24" fill="white" transform="translate(0 6)"/>
</clipPath>
</defs>
<g clip-path="url(#clip0_1135_1841)">
<path fill-rule="evenodd" clip-rule="evenodd" d="M12 18V30C5.37258 30 0 24.6274 0 18C0 11.3726 5.37258 6 12 6H18.4321C20.977 6 23.04 8.06302 23.04 10.6079V18H12Z" fill="url(#paint0_linear_1135_1841)"/>
<path d="M12.0001 20.88C13.5907 20.88 14.8801 19.5906 14.8801 18C14.8801 16.4094 13.5907 15.12 12.0001 15.12C10.4095 15.12 9.12012 16.4094 9.12012 18C9.12012 19.5906 10.4095 20.88 12.0001 20.88Z" fill="white"/>
<path fill-rule="evenodd" clip-rule="evenodd" d="M12 20.88C13.5906 20.88 14.88 19.5906 14.88 18H23.04V25.3922C23.04 27.937 20.977 30 18.4321 30H12V20.88Z" fill="#0066FF"/>
</g>
<path d="M44.912 14.12C44.48 13.288 43.88 12.664 43.112 12.248C42.344 11.816 41.456 11.6 40.448 11.6C39.344 11.6 38.36 11.848 37.496 12.344C36.632 12.84 35.952 13.544 35.456 14.456C34.976 15.368 34.736 16.424 34.736 17.624C34.736 18.824 34.976 19.888 35.456 20.816C35.952 21.728 36.632 22.432 37.496 22.928C38.36 23.424 39.344 23.672 40.448 23.672C41.936 23.672 43.144 23.256 44.072 22.424C45 21.592 45.568 20.464 45.776 19.04H39.512V16.856H48.704V18.992C48.528 20.288 48.064 21.48 47.312 22.568C46.576 23.656 45.608 24.528 44.408 25.184C43.224 25.824 41.904 26.144 40.448 26.144C38.88 26.144 37.448 25.784 36.152 25.064C34.856 24.328 33.824 23.312 33.056 22.016C32.304 20.72 31.928 19.256 31.928 17.624C31.928 15.992 32.304 14.528 33.056 13.232C33.824 11.936 34.856 10.928 36.152 10.208C37.464 9.472 38.896 9.104 40.448 9.104C42.224 9.104 43.8 9.544 45.176 10.424C46.568 11.288 47.576 12.52 48.2 14.12H44.912ZM54.1385 14.696C54.5385 14.024 55.0665 13.504 55.7225 13.136C56.3945 12.752 57.1865 12.56 58.0985 12.56V15.392H57.4025C56.3305 15.392 55.5145 15.664 54.9545 16.208C54.4105 16.752 54.1385 17.696 54.1385 19.04V26H51.4025V12.776H54.1385V14.696ZM59.7015 19.328C59.7015 18 59.9735 16.824 60.5175 15.8C61.0775 14.776 61.8295 13.984 62.7735 13.424C63.7335 12.848 64.7895 12.56 65.9415 12.56C66.9815 12.56 67.8855 12.768 68.6535 13.184C69.4375 13.584 70.0615 14.088 70.5255 14.696V12.776H73.2855V26H70.5255V24.032C70.0615 24.656 69.4295 25.176 68.6295 25.592C67.8295 26.008 66.9175 26.216 65.8935 26.216C64.7575 26.216 63.7175 25.928 62.7735 25.352C61.8295 24.76 61.0775 23.944 60.5175 22.904C59.9735 21.848 59.7015 20.656 59.7015 19.328ZM70.5255 19.376C70.5255 18.464 70.3335 17.672 69.9495 17C69.5815 16.328 69.0935 15.816 68.4855 15.464C67.8775 15.112 67.2215 14.936 66.5175 14.936C65.8135 14.936 65.1575 15.112 64.5495 15.464C63.9415 15.8 63.4455 16.304 63.0615 16.976C62.6935 17.632 62.5095 18.416 62.5095 19.328C62.5095 20.24 62.6935 21.04 63.0615 21.728C63.4455 22.416 63.9415 22.944 64.5495 23.312C65.1735 23.664 65.8295 23.84 66.5175 23.84C67.2215 23.84 67.8775 23.664 68.4855 23.312C69.0935 22.96 69.5815 22.448 69.9495 21.776C70.3335 21.088 70.5255 20.288 70.5255 19.376ZM78.2711 11.024C77.7751 11.024 77.3591 10.856 77.0231 10.52C76.6871 10.184 76.5191 9.768 76.5191 9.272C76.5191 8.776 76.6871 8.36 77.0231 8.024C77.3591 7.688 77.7751 7.52 78.2711 7.52C78.7511 7.52 79.1591 7.688 79.4951 8.024C79.8311 8.36 79.9991 8.776 79.9991 9.272C79.9991 9.768 79.8311 10.184 79.4951 10.52C79.1591 10.856 78.7511 11.024 78.2711 11.024ZM79.6151 12.776V26H76.8791V12.776H79.6151ZM89.8792 12.56C90.9192 12.56 91.8472 12.776 92.6632 13.208C93.4952 13.64 94.1432 14.28 94.6072 15.128C95.0712 15.976 95.3032 17 95.3032 18.2V26H92.5912V18.608C92.5912 17.424 92.2952 16.52 91.7032 15.896C91.1112 15.256 90.3032 14.936 89.2792 14.936C88.2552 14.936 87.4392 15.256 86.8312 15.896C86.2392 16.52 85.9432 17.424 85.9432 18.608V26H83.2072V12.776H85.9432V14.288C86.3912 13.744 86.9592 13.32 87.6472 13.016C88.3512 12.712 89.0952 12.56 89.8792 12.56ZM97.8812 19.376C97.8812 18.016 98.1532 16.824 98.6972 15.8C99.2572 14.76 100.025 13.96 101.001 13.4C101.977 12.84 103.097 12.56 104.361 12.56C105.961 12.56 107.281 12.944 108.321 13.712C109.377 14.464 110.089 15.544 110.457 16.952H107.505C107.265 16.296 106.881 15.784 106.353 15.416C105.825 15.048 105.161 14.864 104.361 14.864C103.241 14.864 102.345 15.264 101.673 16.064C101.017 16.848 100.689 17.952 100.689 19.376C100.689 20.8 101.017 21.912 101.673 22.712C102.345 23.512 103.241 23.912 104.361 23.912C105.945 23.912 106.993 23.216 107.505 21.824H110.457C110.073 23.168 109.353 24.24 108.297 25.04C107.241 25.824 105.929 26.216 104.361 26.216C103.097 26.216 101.977 25.936 101.001 25.376C100.025 24.8 99.2572 24 98.6972 22.976C98.1532 21.936 97.8812 20.736 97.8812 19.376Z" fill="#1A1A1B"/>
</svg>
